# Exported using Kenney Suite 1.2 

mtllib formationLarge_stone.mtl 

g formationLarge_stone

v 10.72924 3.203585 -5.888035 
v 9.654244 5.428436E-17 -6.775587 
v 11.27165 3.203585 -6.430444 
v 11.12346 1.085687E-16 -8.244803 
v 2.109776 4.474855 -3.412481 
v 2.109776 4.474855 -4.029685 
v 3.983717 4.474855 -2.330561 
v 3.839339 4.474855 -4.029685 
v 4.3403 4.474855 -5.029585 
v 3.709473 4.474855 -4.738182 
v 4.3403 4.474855 -2.536434 
v 10.96642 5.428436E-17 -3.244803 
v 12.70769 1.085687E-16 -3.244803 
v 13.62346 1.085687E-16 -6.450934 
v 10.96642 0 -2.006 
v 7.491928 0 -7.986337E-13 
v 7.491928 0 -8.024 
v 6.988363 0 -7.733267 
v 5.505728 0 -1.146733 
v 3.983717 0 -0.268 
v 3.983717 0 -9.467999 
v -2.74984E-13 0 -2.568 
v -7.675566E-13 0 -7.168 
v 6.652861 13.80163 -1.750621 
v 7.406383 13.80163 -4.364816 
v 7.612118 13.80163 -1.196794 
v 9.744998 13.80163 -3.659632 
v 9.744998 13.80163 -2.428213 
v 4.503862 6.741812 -4.012 
v 4.503862 6.741812 -5.73716 
v 7.203702 6.741812 -4.99993 
v 7.491928 6.741812 -7.46232 
v 10.47999 6.741812 -4.012 
v 10.47999 6.741812 -5.73716 
v 10.06166 9.413096 -2.355995 
v 10.06166 9.413096 -3.839633 
v 10.47999 6.741812 -2.28684 
v 7.491928 6.741812 -0.56168 
v 6.336196 9.413096 -1.539619 
v 7.244054 9.413096 -4.689252 
v 10.73528 3.203585 -4.632536 
v 10.73528 3.203585 -5.88455 
v 4.922192 9.413096 -3.839633 
v 4.922192 9.413096 -2.355995 
v 7.491928 9.413096 -0.8723575 
v 4.503862 6.741812 -2.28684 
v 12.02083 3.203585 -5.892873 
v 11.66084 3.203585 -4.632536 
v 4.800763 1.27204 -1.659722 
v 3.983717 1.27204 -1.188 
v 4.245932 3.166945 -2.137924 
v 4.168214 2.08978 -5.408862 
v 4.168214 2.08978 -5.930947 
v 4.413588 2.08978 -1.951386 
v 5.768744 2.08978 -6.855013 
v 6.283398 1.27204 -7.220278 
v 0.7967434 1.27204 -6.708 
v 3.983717 1.27204 -8.547999 
v 0.7967434 1.27204 -3.028 
v 0.7967434 1.27204 -4.077668 
v 1.306659 2.08978 -3.2488 
v 1.306659 2.08978 -4.130521 
v 5.577204 1.27204 -7.628 
v 3.777462 2.08978 -4.130521 
v 3.983717 2.08978 -1.7032 
v 3.591941 2.08978 -5.142658 
v 3.738176 1.27204 -4.077668 
v 3.296457 1.27204 -6.487519 
v 3.406419 2.08978 -6.154797 
v 5.322246 2.08978 -7.1128 

vn -0.6707768 0.3164124 -0.6707768
vn 0 1 0
vn 0 -1 0
vn 0.9961229 0.08797266 -1.066658E-13
vn 0.9984601 0.0554755 -1.069161E-13
vn 0.9960794 0.08846357 -1.066612E-13
vn 0.4992302 0.05547081 0.864692
vn 0.4989114 0.06595416 0.8641399
vn 0.4989054 0.06613331 0.8641295
vn 0.9961986 0.08711131 -1.06674E-13
vn 0.997072 0.07646829 -1.067675E-13
vn -0.959987 0.04309366 -0.2767089
vn 0.9984603 0.05547081 -1.069161E-13
vn -0.3423123 0.08775659 -0.935479
vn 0.4991333 0.05885454 0.8645242
vn 0.4991409 0.05859598 0.8645374
vn 0.287725 0.08210377 -0.9541873
vn 0.2880959 0.0646371 -0.9554175
vn 0.2880894 0.06498675 -0.9553959
vn -0.4989054 0.06613331 0.8641295
vn -0.4989114 0.06595416 0.8641399
vn -0.4988192 0.06868362 0.8639804
vn -0.498503 0.07732303 0.8634325
vn -0.498719 0.07153694 0.8638066
vn -0.9961986 0.08711131 1.06674E-13
vn -0.997072 0.07646829 1.067675E-13
vn -0.9928081 0.1197165 1.063109E-13
vn 0.2883911 0.04622859 -0.9563962
vn 0.4996249 0.03872496 0.8653758
vn -0.4991072 0.05973542 0.8644789
vn 0.5530387 0.3164124 -0.7707342
vn 0.9121427 0.3164124 0.2605357
vn 0.4503584 0.4344068 0.7800435
vn 0.4552219 0.4136329 0.7884674
vn 0.4550324 0.4144661 0.7881392
vn 1.015794E-13 0.3164124 0.9486217
vn 0.4992302 0.05547081 -0.864692
vn -0.9984603 0.05547081 1.069161E-13
vn -0.4992302 0.05547081 0.864692
vn -0.4992302 0.05547081 -0.864692
vn -0.4503584 0.4344068 -0.7800435
vn -0.4503584 0.4344068 0.7800435
vn -0.4550324 0.4144661 0.7881392
vn -0.4549138 0.4149863 0.7879339
vn -0.9007168 0.4344068 9.644966E-14
vn -0.9010436 0.4337284 9.648466E-14
vn -0.9009734 0.4338744 9.647714E-14
vn -0.9367097 0.3501072 1.003038E-13
vn -0.9392895 0.343126 1.005801E-13
vn 0.4503584 0.4344068 -0.7800435
vn 0.4470288 0.4479518 -0.7742767
vn 0.445934 0.4522958 -0.7723804
vn -1.070651E-13 -0.01723827 -0.9998515
vn -1.070777E-13 -0.007842666 -0.9999692
vn -1.070243E-13 0.03253649 -0.9994705
vn -0.4781527 0.29237 0.8281847
vn -0.4773483 0.2975811 0.8267915
vn -0.4924815 0.1727654 0.8530029
vn 0.4787546 0.2884024 0.8292274
vn 0.4781527 0.29237 0.8281847
vn 0.4924815 0.1727654 0.8530029
vn -0.9679922 0.2509803 1.036536E-13
vn -0.9835195 0.01377834 0.1802762
vn -0.9831824 0.02958171 0.1802144
vn -0.9829956 0.03542267 0.1801801
vn -0.4156176 0.1332579 -0.8997247
vn -0.9826026 0.04531296 0.1801081
vn -0.4251562 0.3103981 -0.8502324
vn -1.069486E-13 -0.04970604 -0.9987639
vn 0.4399224 0.4752614 -0.7619679

vt -92.52118 39.60551
vt -91.47752 5.071363
vt -98.5612 39.60551
vt -107.838 5.071363
vt 16.61241 26.86993
vt 16.61241 31.72981
vt 31.36785 18.35088
vt 30.23101 31.72981
vt 34.17559 39.60303
vt 29.20845 37.30852
vt 34.17559 19.97192
vt -76.01767 53.35107
vt -86.34978 25.54963
vt -87.5863 64.91972
vt -100.0606 25.54963
vt -107.2713 50.79475
vt -86.34978 15.79528
vt -58.99156 -2.842171E-14
vt -58.99156 63.1811
vt -55.02648 60.89186
vt -43.35218 9.029395
vt -31.36785 2.110236
vt -31.36785 74.55118
vt 0 20.22047
vt 0 56.44094
vt 52.38473 13.78442
vt 58.31797 34.36863
vt 59.93794 9.423572
vt 76.73227 28.816
vt 76.73227 19.11979
vt 35.46349 31.59055
vt 35.46349 45.17449
vt 56.72206 39.36953
vt 58.99156 58.75843
vt 82.51962 31.59055
vt 82.51962 45.17449
vt 18.55114 91.71495
vt 19.11979 136.6613
vt 30.23333 91.71495
vt 28.816 136.6613
vt 82.67873 -1.636155
vt 51.08818 -1.636155
vt 80.4674 67.41189
vt 53.29953 67.41189
vt 18.00661 58.56695
vt 18.55114 86.08137
vt 31.59055 58.56695
vt 30.23333 86.08137
vt -25.46694 98.09004
vt -51.27689 98.09004
vt -27.75397 143.0089
vt -49.17623 143.0089
vt 15.79528 -4.789892
vt 18.00661 64.25816
vt 25.54963 -4.789892
vt 31.59055 64.25816
vt 36.47667 28.02047
vt 45.17449 64.25816
vt 46.33504 28.02047
vt -44.15955 67.14175
vt -66.79668 67.14175
vt -46.7865 94.56409
vt -66.25443 94.56409
vt 38.75742 18.55114
vt 38.75742 30.23333
vt 49.89131 12.12299
vt 57.03979 36.92325
vt 80.4674 66.75079
vt 53.29953 66.75079
vt 77.88704 94.14935
vt 54.52266 94.14935
vt -42.94085 64.26971
vt -69.88573 64.26971
vt -43.95129 91.67879
vt -67.12389 91.67879
vt 48.87685 71.31219
vt 21.70897 71.31219
vt 47.65371 98.71075
vt 24.28934 98.71075
vt 37.14565 98.71075
vt -18.00661 72.69147
vt -31.59055 72.69147
vt -18.55114 100.2059
vt -30.23333 100.2059
vt -43.95129 93.75986
vt -67.12389 93.75986
vt -45.91256 138.6851
vt -65.14582 138.6851
vt 77.88704 95.27421
vt 54.52266 95.27421
vt 76.01199 140.1851
vt 56.61956 140.1851
vt 47.65371 98.20367
vt 37.14565 98.20367
vt 47.19599 143.1611
vt 38.4743 143.1611
vt -33.31428 -32.84612
vt -57.54268 -32.84612
vt -42.59112 1.68803
vt -49.85167 1.68803
vt 84.52976 36.47667
vt 84.52976 46.33504
vt 91.81763 36.47667
vt 88.75317 50.63342
vt 94.6522 46.40057
vt 84.48223 46.36248
vt 52.04842 -28.2226
vt 60.29136 6.311542
vt 78.30316 -28.2226
vt 70.61216 6.311542
vt 42.05879 -6.019318
vt 28.22047 -6.019318
vt 39.27121 8.422374
vt 31.84252 8.422374
vt 86.34978 8.08422
vt 84.52976 42.61837
vt 100.0606 8.08422
vt 91.81763 42.61837
vt -19.49763 -4.671319
vt -39.1577 -4.671319
vt -21.70897 64.37672
vt -49.98252 28.13904
vt -50.0374 28.13904
vt -48.87685 64.37672
vt -16.83405 34.18983
vt -19.97192 47.58513
vt -18.00661 70.80277
vt -31.59055 70.80277
vt -39.60303 47.58513
vt -45.17449 70.80277
vt -42.58946 23.15776
vt -46.70037 23.15776
vt 51.08818 1.636155
vt 33.0294 1.636155
vt 48.87685 70.6842
vt 26.20253 14.66409
vt 22.41406 23.03919
vt 20.5364 34.07126
vt 21.70897 70.6842
vt -51.77364 20.00402
vt -66.32587 20.00402
vt -53.29953 67.64903
vt -80.4674 67.64903
vt -71.2734 11.62892
vt -82.67873 -1.39901
vt -78.10026 -1.39901
vt -28.22047 -21.2335
vt -64.44095 -21.2335
vt -31.84252 -6.791807
vt -60.8189 -6.791807
vt 26.11024 7.60709
vt -10.11024 7.60709
vt 22.48819 22.04878
vt -6.488189 22.04878
vt -20.22047 1.792589E-17
vt -56.44094 5.003613E-17
vt -23.84252 14.44169
vt -32.10762 14.44169
vt -52.8189 14.44169
vt -25.5811 23.71784
vt -32.52379 23.71784
vt 10.11024 -34.85991
vt -17.2084 -34.85991
vt 6.488189 -20.41822
vt -8 -20.41822
vt -14.42082 -20.41822
vt -10.28865 20.30055
vt -29.7438 20.30055
vt -16.61241 44.70324
vt -30.23101 44.70324
vt 20.45984 25.76493
vt -3.880315 25.76493
vt 17.98992 50.52703
vt 0.9518065 50.52703
vt 37.77931 20.34564
vt 33.87086 20.34564
vt 37.37045 31.5289
vt 36.34079 45.10776
vt 39.58289 45.10776
vt -25.5811 23.26832
vt -32.52379 23.26832
vt -26.86993 48.46456
vt -31.72981 48.46456
vt -25.7594 46.24403
vt -26.62821 21.85195
vt -31.43106 46.24403
vt -34.73057 21.85195
vt -47.65543 17.86136
vt -47.63316 42.4706
vt -42.65711 17.86136
vt -42.16166 42.4706
vt 6.27357 32.10762
vt 6.27357 52.8189
vt 29.43445 32.10762
vt 25.95636 51.08283
vt 31.36785 67.30708
vt 43.91499 60.06299
vt -26.27464 14.56873
vt -45.56598 14.56873
vt -26.62821 22.93953
vt -34.73057 22.93953
vt -42.83294 22.93953
vt 22.48819 21.2052
vt -6.488189 21.2052
vt 20.45984 30.27543
vt -3.880315 30.27543
vt 31.84252 9.055394
vt 33.87086 18.12562
vt 39.27121 9.055394
vt 37.77931 18.12562
vt -46.06229 1.786971
vt -66.14103 1.786971
vt -45.66498 10.58367
vt -62.53112 10.58367
vt -6.27357 14.58774
vt -29.43445 14.58774
vt -10.28865 22.96029
vt -29.7438 22.96029
vt 41.90745 56.0063
vt 32.82058 46.70037
vt 26.8222 48.46296
vt 28.283 40.49337
vt 32.82058 42.58946
vt 45.42318 53.97649
vt -8 -23.71187
vt -14.42082 -23.71187
vt -8.289763 -14.20768
vt -12.34939 -14.20768

usemtl stone
usemap stone

f 2/2/1 1/1/1 3/3/1
f 3/3/1 4/4/1 2/2/1
f 6/6/2 5/5/2 7/7/2
f 7/7/2 8/8/2 6/6/2
f 8/8/2 7/7/2 9/9/2
f 9/9/2 10/10/2 8/8/2
f 7/7/2 11/11/2 9/9/2
f 12/13/3 2/12/3 4/14/3
f 4/14/3 13/15/3 12/13/3
f 4/14/3 14/16/3 13/15/3
f 2/12/3 12/13/3 15/17/3
f 2/12/3 15/17/3 16/18/3
f 17/19/3 2/12/3 16/18/3
f 18/20/3 17/19/3 16/18/3
f 18/20/3 16/18/3 19/21/3
f 18/20/3 19/21/3 20/22/3
f 21/23/3 18/20/3 20/22/3
f 21/23/3 20/22/3 22/24/3
f 22/24/3 23/25/3 21/23/3
f 25/27/2 24/26/2 26/28/2
f 26/28/2 27/29/2 25/27/2
f 26/28/2 28/30/2 27/29/2
f 30/32/2 29/31/2 31/33/2
f 31/33/2 32/34/2 30/32/2
f 31/33/2 33/35/2 32/34/2
f 33/35/2 34/36/2 32/34/2
f 28/38/5 35/37/4 36/39/6
f 36/39/6 27/40/5 28/38/5
f 16/42/7 15/41/7 37/43/8
f 37/43/8 38/44/9 16/42/7
f 35/46/4 37/45/10 33/47/11
f 33/47/11 36/48/6 35/46/4
f 40/50/12 39/49/12 24/51/12
f 24/51/12 25/52/12 40/50/12
f 37/54/10 15/53/13 12/55/13
f 12/55/13 33/56/11 37/54/10
f 12/55/13 41/57/13 33/56/11
f 41/57/13 34/58/13 33/56/11
f 41/57/13 42/59/13 34/58/13
f 31/61/14 29/60/14 43/62/14
f 43/62/14 40/63/14 31/61/14
f 43/65/2 44/64/2 39/66/2
f 39/66/2 40/67/2 43/65/2
f 38/69/9 37/68/8 35/70/15
f 35/70/15 45/71/16 38/69/9
f 33/73/17 31/72/17 40/74/18
f 40/74/18 36/75/19 33/73/17
f 46/77/21 38/76/20 45/78/22
f 45/78/22 44/79/23 46/77/21
f 45/78/22 39/80/24 44/79/23
f 29/82/26 46/81/25 44/83/27
f 44/83/27 43/84/27 29/82/26
f 36/86/19 40/85/18 25/87/28
f 25/87/28 27/88/28 36/86/19
f 45/90/16 35/89/15 28/91/29
f 28/91/29 26/92/29 45/90/16
f 39/94/24 45/93/22 26/95/30
f 26/95/30 24/96/30 39/94/24
f 14/98/31 4/97/31 3/99/31
f 3/99/31 47/100/31 14/98/31
f 42/102/2 41/101/2 48/103/2
f 48/103/2 3/104/2 42/102/2
f 48/103/2 47/105/2 3/104/2
f 1/106/2 42/102/2 3/104/2
f 48/108/32 13/107/32 14/109/32
f 14/109/32 47/110/32 48/108/32
f 20/112/33 19/111/33 49/113/34
f 49/113/34 50/114/35 20/112/33
f 41/116/36 12/115/36 13/117/36
f 13/117/36 48/118/36 41/116/36
f 2/120/37 17/119/37 32/121/37
f 32/121/37 1/122/37 2/120/37
f 32/121/37 42/123/37 1/122/37
f 32/121/37 34/124/37 42/123/37
f 11/126/38 51/125/38 46/127/25
f 46/127/25 29/128/26 11/126/38
f 29/128/26 9/129/38 11/126/38
f 29/128/26 30/130/38 9/129/38
f 30/130/38 52/131/38 9/129/38
f 30/130/38 53/132/38 52/131/38
f 19/134/39 16/133/39 38/135/20
f 38/135/20 49/136/39 19/134/39
f 38/135/20 54/137/39 49/136/39
f 38/135/20 51/138/39 54/137/39
f 38/135/20 46/139/21 51/138/39
f 55/141/40 53/140/40 30/142/40
f 55/141/40 30/142/40 32/143/40
f 56/144/40 55/141/40 32/143/40
f 56/144/40 32/143/40 17/145/40
f 17/145/40 18/146/40 56/144/40
f 21/148/41 23/147/41 57/149/41
f 57/149/41 58/150/41 21/148/41
f 22/152/42 20/151/42 50/153/43
f 50/153/43 59/154/44 22/152/42
f 23/156/45 22/155/45 59/157/46
f 59/157/46 60/158/47 23/156/45
f 60/158/47 57/159/45 23/156/45
f 60/158/47 59/157/46 61/160/48
f 61/160/48 62/161/49 60/158/47
f 18/163/50 21/162/50 58/164/50
f 58/164/50 63/165/51 18/163/50
f 63/165/51 56/166/52 18/163/50
f 64/168/54 62/167/53 6/169/55
f 6/169/55 8/170/55 64/168/54
f 61/172/57 65/171/56 7/173/58
f 7/173/58 5/174/58 61/172/57
f 65/176/60 54/175/59 51/177/61
f 51/177/61 7/178/61 65/176/60
f 51/177/61 11/179/61 7/178/61
f 62/181/49 61/180/48 5/182/62
f 5/182/62 6/183/62 62/181/49
f 64/185/64 8/184/63 10/186/63
f 10/186/63 66/187/65 64/185/64
f 9/189/66 52/188/66 66/190/66
f 66/190/66 10/191/66 9/189/66
f 57/193/2 60/192/2 67/194/2
f 67/194/2 68/195/2 57/193/2
f 58/196/2 57/193/2 68/195/2
f 68/195/2 63/197/2 58/196/2
f 68/199/67 67/198/67 64/200/64
f 64/200/64 66/201/65 68/199/67
f 66/201/65 69/202/67 68/199/67
f 59/204/44 50/203/43 65/205/56
f 65/205/56 61/206/57 59/204/44
f 65/208/60 50/207/35 49/209/34
f 49/209/34 54/210/59 65/208/60
f 63/212/68 68/211/68 69/213/68
f 69/213/68 70/214/68 63/212/68
f 67/216/69 60/215/69 62/217/53
f 62/217/53 64/218/54 67/216/69
f 53/220/2 70/219/2 69/221/2
f 69/221/2 66/222/2 53/220/2
f 66/222/2 52/223/2 53/220/2
f 53/220/2 55/224/2 70/219/2
f 56/226/52 63/225/51 70/227/70
f 70/227/70 55/228/70 56/226/52
