# Exported using Kenney Suite 1.2 

mtllib shovel.mtl 

g shovel

v -0.5519999 -1.624301E-14 7.792399 
v -0.2944 -1.624301E-14 8.05 
v -0.5519999 0.368 7.792399 
v -0.2944 0.368 8.05 
v -0.8096 -1.624301E-14 8.221015 
v -1.3984 -1.624301E-14 8.221015 
v -0.8096 0.368 8.221015 
v -1.3984 0.368 8.221015 
v -0.7230159 0.368 8.221015 
v -0.7230159 -1.624301E-14 8.221015 
v -1.484984 -1.624301E-14 8.221015 
v -1.484984 0.368 8.221015 
v -1.3984 -1.624301E-14 3.40974 
v -1.3984 0.368 3.40974 
v -1.3984 -1.624301E-14 7.792399 
v -1.3984 0.368 7.792399 
v -0.2944 0.368 8.97 
v -0.2944 -1.624301E-14 8.97 
v -1.9136 -1.624301E-14 8.05 
v -1.9136 0.368 8.05 
v -1.9136 -1.624301E-14 8.97 
v -1.9136 0.368 8.97 
v -0.8096 0.368 3.40974 
v -0.8096 0.368 7.792399 
v -1.656 0.368 7.792399 
v -1.484984 0.368 8.541384 
v -0.7230159 0.368 8.541384 
v -0.8096 -1.624301E-14 3.40974 
v -0.8096 -1.624301E-14 7.792399 
v -0.7230159 -1.624301E-14 8.541384 
v -1.484984 -1.624301E-14 8.541384 
v -1.656 -1.624301E-14 7.792399 
v -0.8182638 -1.624301E-14 0.03761789 
v -0.5519999 -1.624301E-14 0.147908 
v -0.8182638 0.2208 0.03761789 
v -0.5519999 0.2208 0.147908 
v -2.208 -1.624301E-14 1.104 
v -2.208 0.2208 1.104 
v -2.208 -1.624301E-14 2.6128 
v -2.208 0.2208 2.6128 
v -1.884646 -1.624301E-14 0.3233541 
v -1.656 -1.624301E-14 0.147908 
v -1.884646 0.2208 0.3233541 
v -1.656 0.2208 0.147908 
v -0.8096 0.2208 2.128721 
v -1.3984 0.2208 2.128721 
v -1.104 0.2208 0 
v -1.389736 0.2208 0.03761789 
v -1.3984 0.2208 2.6128 
v -2.060092 0.2208 0.5519999 
v -2.170382 0.2208 0.8182638 
v -0.8096 0.2208 2.6128 
v -0.3233541 0.2208 0.3233541 
v -0.147908 0.2208 0.5519999 
v -0.03761789 0.2208 0.8182638 
v 0 0.2208 2.6128 
v 0 0.2208 1.104 
v -0.8096 0.368 2.6128 
v -1.3984 0.368 2.6128 
v -1.389736 -1.624301E-14 0.03761789 
v -0.03761789 -1.624301E-14 0.8182638 
v 0 -1.624301E-14 1.104 
v -0.147908 -1.624301E-14 0.5519999 
v -0.8096 -1.624301E-14 2.6128 
v -1.3984 -1.624301E-14 2.6128 
v -2.060092 -1.624301E-14 0.5519999 
v -2.170382 -1.624301E-14 0.8182638 
v -1.104 -1.624301E-14 0 
v -0.3233541 -1.624301E-14 0.3233541 
v 0 -1.624301E-14 2.6128 

vn 0.7071068 0 -0.7071068
vn 0 0 1
vn -1 0 0
vn 1 0 0
vn 0 1 0
vn 0 0 -1
vn 0 -1 0
vn -0.7071068 0 -0.7071068
vn 0.258819 0 -0.9659258
vn 0.5 0 -0.8660254
vn -0.5 0 -0.8660254
vn 0 0.9567446 -0.2909294
vn -0.258819 0 -0.9659258
vn 0.9659258 0 -0.258819
vn 0.9914449 0 -0.1305262
vn 0.8660254 0 -0.5
vn -0.8660254 0 -0.5
vn -0.9659258 0 -0.258819
vn -0.9914449 0 -0.1305262

vt -40.31288 -1.255853E-13
vt -43.1814 -1.255853E-13
vt -40.31288 2.897638
vt -43.1814 2.897638
vt -6.374803 -1.233413E-13
vt -11.01102 -1.233413E-13
vt -6.374803 2.897638
vt -11.01102 2.897638
vt -5.693038 2.897638
vt -5.693038 -1.233413E-13
vt -11.69279 -1.233413E-13
vt -11.69279 2.897638
vt 26.84835 -1.278977E-13
vt 26.84835 2.897638
vt 61.35748 -1.278977E-13
vt 61.35748 2.897638
vt -63.38583 2.897638
vt -63.38583 -1.278977E-13
vt -70.62992 2.897638
vt -70.62992 -1.278977E-13
vt 63.38583 -1.278977E-13
vt 63.38583 2.897638
vt 70.62992 -1.278977E-13
vt 70.62992 2.897638
vt 6.374803 26.84835
vt 6.374803 61.35748
vt 11.01102 26.84835
vt 6.374803 64.73241
vt 11.01102 64.73241
vt 11.01102 61.35748
vt 13.03937 61.35748
vt 11.69279 64.73241
vt 11.69279 67.25499
vt 15.06772 70.62992
vt 5.693038 67.25499
vt 2.31811 70.62992
vt 4.346457 61.35748
vt 2.31811 63.38583
vt 5.693038 64.73241
vt 15.06772 63.38583
vt -26.84835 2.897638
vt -26.84835 -1.278977E-13
vt -61.35748 2.897638
vt -61.35748 -1.278977E-13
vt 6.374803 -1.235788E-13
vt 4.346457 -1.235788E-13
vt 6.374803 2.897638
vt 4.346457 2.897638
vt -2.31811 63.38583
vt -5.693038 67.25499
vt -2.31811 70.62992
vt -15.06772 70.62992
vt -4.346457 61.35748
vt -11.69279 67.25499
vt -11.69279 64.73241
vt -13.03937 61.35748
vt -15.06772 63.38583
vt -11.01102 61.35748
vt -11.01102 64.73241
vt -5.693038 64.73241
vt -6.374803 61.35748
vt -6.374803 64.73241
vt -6.374803 26.84835
vt -11.01102 26.84835
vt -64.73241 2.897638
vt -64.73241 -1.278977E-13
vt -67.25499 2.897638
vt -67.25499 -1.278977E-13
vt 64.73241 -1.278977E-13
vt 64.73241 2.897638
vt 67.25499 -1.278977E-13
vt 67.25499 2.897638
vt -2.31811 -1.229261E-13
vt -15.06772 -1.229261E-13
vt -2.31811 2.897638
vt -15.06772 2.897638
vt 13.03937 -1.235788E-13
vt 11.01102 -1.235788E-13
vt 13.03937 2.897638
vt 11.01102 2.897638
vt 52.60652 -1.261972E-13
vt 52.60652 2.897638
vt 55.47503 -1.261972E-13
vt 55.47503 2.897638
vt 11.69279 -1.231637E-13
vt 5.693038 -1.231637E-13
vt 11.69279 2.897638
vt 5.693038 2.897638
vt 5.839224 -1.277196E-13
vt 3.569918 -1.277196E-13
vt 5.839224 1.738583
vt 3.569918 1.738583
vt 8.692913 -1.278977E-13
vt 8.692913 1.738583
vt 20.57323 -1.278977E-13
vt 20.57323 1.738583
vt 13.32312 -1.282894E-13
vt 11.05381 -1.282894E-13
vt 13.32312 1.738583
vt 11.05381 1.738583
vt 4.346457 1.16463
vt 6.374803 16.76158
vt 6.443022 0.2962039
vt 11.01102 16.76158
vt 8.692913 -1.22377E-16
vt 10.94281 0.2962039
vt 13.03937 1.16463
vt 11.01102 20.57323
vt 17.38583 20.57323
vt 14.83973 2.546095
vt 16.2212 4.346457
vt 17.08962 6.443022
vt 17.38583 8.692913
vt 6.374803 20.57323
vt 2.546095 2.546095
vt 1.16463 4.346457
vt 0.2962039 6.443022
vt 2.477401E-16 20.57323
vt 2.477401E-16 8.692913
vt 6.374803 16.54236
vt 6.374803 20.52633
vt 11.01102 16.54236
vt 11.01102 20.52633
vt 12.49249 -1.281522E-13
vt 10.22319 -1.281522E-13
vt 12.49249 1.738583
vt 10.22319 1.738583
vt -6.349238 1.738583
vt -6.349238 -1.278873E-13
vt -8.618545 1.738583
vt -8.618545 -1.278873E-13
vt -3.569918 1.738583
vt -3.569918 -1.278239E-13
vt -5.839224 1.738583
vt -5.839224 -1.278239E-13
vt -16.76158 1.738583
vt -20.57323 1.738583
vt -20.57323 2.897638
vt -20.57323 -1.278977E-13
vt -11.01102 -1.264496E-13
vt -17.38583 -1.264496E-13
vt -11.01102 1.738583
vt -17.38583 1.738583
vt 10.22319 -1.282566E-13
vt 12.49249 -1.282566E-13
vt 10.88785 -1.279769E-13
vt 8.618545 -1.279769E-13
vt 10.88785 1.738583
vt 8.618545 1.738583
vt 6.349238 -1.278185E-13
vt 6.349238 1.738583
vt 20.57323 2.897638
vt 16.76158 1.738583
vt 2.739294 -1.276983E-13
vt 0.4699886 -1.276983E-13
vt 2.739294 1.738583
vt 0.4699886 1.738583
vt -6.374803 20.57323
vt -6.443022 0.2962039
vt -8.692913 9.089778E-30
vt -10.94281 0.2962039
vt -11.01102 20.57323
vt -13.03937 1.16463
vt -17.38583 20.57323
vt -14.83973 2.546095
vt -16.2212 4.346457
vt -17.08962 6.443022
vt -17.38583 8.692913
vt -4.346457 1.16463
vt -2.546095 2.546095
vt -1.16463 4.346457
vt -0.2962039 6.443022
vt 1.822484E-29 8.692913
vt 1.822484E-29 20.57323
vt -0.4699886 1.738583
vt -0.4699886 -1.277447E-13
vt -2.739294 1.738583
vt -2.739294 -1.277447E-13
vt 8.618545 -1.280456E-13
vt 10.88785 -1.280456E-13
vt 11.01102 -1.260079E-13
vt 6.374803 -1.260079E-13
vt 2.063517E-31 -1.264496E-13
vt -6.374803 -1.264496E-13
vt 2.063517E-31 1.738583
vt -6.374803 1.738583
vt 11.05381 -1.283358E-13
vt 13.32312 -1.283358E-13
vt -8.692913 1.738583
vt -8.692913 -1.278977E-13

usemtl wood
usemap wood

f 2/2/1 1/1/1 3/3/1
f 3/3/1 4/4/1 2/2/1
f 6/6/2 5/5/2 7/7/2
f 7/7/2 8/8/2 6/6/2
f 9/9/2 7/7/2 5/5/2
f 5/5/2 10/10/2 9/9/2
f 11/11/2 6/6/2 8/8/2
f 8/8/2 12/12/2 11/11/2
f 14/14/3 13/13/3 15/15/3
f 15/15/3 16/16/3 14/14/3
f 2/18/4 4/17/4 17/19/4
f 17/19/4 18/20/4 2/18/4
f 20/22/3 19/21/3 21/23/3
f 21/23/3 22/24/3 20/22/3
f 24/26/5 23/25/5 14/27/5
f 14/27/5 7/28/5 24/26/5
f 14/27/5 8/29/5 7/28/5
f 14/27/5 16/30/5 8/29/5
f 16/30/5 25/31/5 8/29/5
f 25/31/5 12/32/5 8/29/5
f 25/31/5 26/33/5 12/32/5
f 26/33/5 25/31/5 22/34/5
f 27/35/5 26/33/5 22/34/5
f 27/35/5 22/34/5 17/36/5
f 3/37/5 27/35/5 17/36/5
f 17/36/5 4/38/5 3/37/5
f 3/37/5 9/39/5 27/35/5
f 9/39/5 3/37/5 24/26/5
f 24/26/5 7/28/5 9/39/5
f 25/31/5 20/40/5 22/34/5
f 28/42/4 23/41/4 24/43/4
f 24/43/4 29/44/4 28/42/4
f 1/46/6 29/45/6 24/47/6
f 24/47/6 3/48/6 1/46/6
f 30/50/7 2/49/7 18/51/7
f 18/51/7 21/52/7 30/50/7
f 30/50/7 1/53/7 2/49/7
f 21/52/7 31/54/7 30/50/7
f 21/52/7 11/55/7 31/54/7
f 21/52/7 32/56/7 11/55/7
f 21/52/7 19/57/7 32/56/7
f 11/55/7 32/56/7 15/58/7
f 15/58/7 6/59/7 11/55/7
f 1/53/7 30/50/7 10/60/7
f 10/60/7 29/61/7 1/53/7
f 10/60/7 5/62/7 29/61/7
f 5/62/7 6/59/7 29/61/7
f 6/59/7 28/63/7 29/61/7
f 6/59/7 13/64/7 28/63/7
f 6/59/7 15/58/7 13/64/7
f 11/66/4 12/65/4 26/67/4
f 26/67/4 31/68/4 11/66/4
f 9/70/3 10/69/3 30/71/3
f 30/71/3 27/72/3 9/70/3
f 21/74/2 18/73/2 17/75/2
f 17/75/2 22/76/2 21/74/2
f 15/78/6 32/77/6 25/79/6
f 25/79/6 16/80/6 15/78/6
f 25/82/8 32/81/8 19/83/8
f 19/83/8 20/84/8 25/82/8
f 30/86/6 31/85/6 26/87/6
f 26/87/6 27/88/6 30/86/6

usemtl stone
usemap stone

f 34/90/10 33/89/9 35/91/9
f 35/91/9 36/92/10 34/90/10
f 38/94/3 37/93/3 39/95/3
f 39/95/3 40/96/3 38/94/3
f 42/98/11 41/97/8 43/99/8
f 43/99/8 44/100/11 42/98/11
f 45/102/5 36/101/5 35/103/5
f 35/103/5 46/104/5 45/102/5
f 35/103/5 47/105/5 46/104/5
f 47/105/5 48/106/5 46/104/5
f 48/106/5 44/107/5 46/104/5
f 44/107/5 49/108/5 46/104/5
f 44/107/5 40/109/5 49/108/5
f 44/107/5 43/110/5 40/109/5
f 43/110/5 50/111/5 40/109/5
f 50/111/5 51/112/5 40/109/5
f 51/112/5 38/113/5 40/109/5
f 36/101/5 45/102/5 52/114/5
f 53/115/5 36/101/5 52/114/5
f 54/116/5 53/115/5 52/114/5
f 55/117/5 54/116/5 52/114/5
f 55/117/5 52/114/5 56/118/5
f 56/118/5 57/119/5 55/117/5
f 58/121/12 45/120/12 46/122/12
f 46/122/12 59/123/12 58/121/12
f 60/125/13 42/124/11 44/126/11
f 44/126/11 48/127/13 60/125/13
f 61/129/14 55/128/14 57/130/15
f 57/130/15 62/131/15 61/129/14
f 23/25/5 58/114/5 59/108/5
f 59/108/5 14/27/5 23/25/5
f 63/133/16 54/132/16 55/134/14
f 55/134/14 61/135/14 63/133/16
f 52/137/4 45/136/4 58/138/4
f 58/138/4 23/41/4 52/137/4
f 23/41/4 64/139/4 52/137/4
f 23/41/4 28/42/4 64/139/4
f 39/141/2 65/140/2 49/142/2
f 49/142/2 40/143/2 39/141/2
f 50/127/17 66/144/17 67/145/18
f 67/145/18 51/126/18 50/127/17
f 68/147/6 60/146/13 48/148/13
f 48/148/13 47/149/6 68/147/6
f 33/150/9 68/147/6 47/149/6
f 47/149/6 35/151/9 33/150/9
f 49/96/3 65/95/3 13/13/3
f 13/13/3 59/152/3 49/96/3
f 13/13/3 14/14/3 59/152/3
f 46/153/3 49/96/3 59/152/3
f 69/155/1 34/154/10 36/156/10
f 36/156/10 53/157/1 69/155/1
f 64/158/7 28/63/7 13/64/7
f 13/64/7 33/159/7 64/158/7
f 13/64/7 68/160/7 33/159/7
f 13/64/7 60/161/7 68/160/7
f 13/64/7 65/162/7 60/161/7
f 65/162/7 42/163/7 60/161/7
f 65/162/7 39/164/7 42/163/7
f 39/164/7 41/165/7 42/163/7
f 39/164/7 66/166/7 41/165/7
f 39/164/7 67/167/7 66/166/7
f 39/164/7 37/168/7 67/167/7
f 64/158/7 33/159/7 34/169/7
f 64/158/7 34/169/7 69/170/7
f 64/158/7 69/170/7 63/171/7
f 64/158/7 63/171/7 61/172/7
f 64/158/7 61/172/7 62/173/7
f 62/173/7 70/174/7 64/158/7
f 69/176/1 53/175/1 54/177/16
f 54/177/16 63/178/16 69/176/1
f 51/149/18 67/179/18 37/180/19
f 37/180/19 38/148/19 51/149/18
f 28/182/6 13/181/6 14/80/6
f 14/80/6 23/47/6 28/182/6
f 64/184/2 70/183/2 56/185/2
f 56/185/2 52/186/2 64/184/2
f 43/100/8 41/187/8 66/188/17
f 66/188/17 50/99/17 43/100/8
f 62/190/4 57/189/4 56/137/4
f 56/137/4 70/139/4 62/190/4
