# Exported using Kenney Suite 1.2 

mtllib boat_small.mtl 

g boat_small

v 3.75 2 1.7273 
v 3.75 2.85 1.7273 
v 3.75 2 6.14012 
v 3.75 3.5 6.14012 
v 3.75 2.85 -0.4226999 
v 3.75 3.5 -1.521909 
v 3.75 2 -0.4226999 
v 3.75 2 -1.521909 
v -3.75 2 1.7273 
v -3.75 2.85 1.7273 
v -3.75 2.85 -0.4226999 
v -3.75 2 -0.4226999 
v -3.75 2 6.14012 
v 3.4 0 6.45032 
v 3.4 0 0 
v -3.4 0 6.45032 
v 1.86 0 -2.75652 
v 0 0 -3.81672 
v -1.86 0 -2.75652 
v -3.4 -4.511947E-16 0 
v 2.44125 2 -6.135907 
v -2.887646E-14 2 -7.52742 
v 2.087608 2 -4.497505 
v -1.443823E-14 2 -5.687442 
v 2.087608 3.5 -4.497505 
v -1.443823E-14 3.5 -5.687442 
v -2.44125 2 -6.135907 
v -2.325 3.5 -5.46003 
v -1.443823E-14 3.5 -6.78528 
v -3.75 3.5 6.14012 
v 4.4625 2 7.298496 
v -4.4625 2 7.298496 
v 4.25 3.5 7.298496 
v -4.25 3.5 7.298496 
v -2.725 3.5 7.298496 
v -4.4625 2 -2.517975 
v -4.25 3.5 -2.01438 
v 4.4625 2 -2.517975 
v -2.087608 3.5 -4.497505 
v -2.087608 2 -4.497505 
v -3.75 3.5 -1.521909 
v -3.75 2 -1.521909 
v 4.25 3.5 -2.01438 
v 2.325 3.5 -5.46003 

vn -1 0 0
vn 0 0 1
vn 0 1 0
vn 0 0 -1
vn 0 -1 0
vn 0.2610611 -0.8497538 -0.4580019
vn -0.495203 0 0.8687772
vn -0.4549548 0.3949008 -0.7981664
vn -0.2610611 -0.8497538 -0.4580019
vn -0.8390304 0.2762346 -0.4687456
vn 0.593768 -0.7330751 -0.3317236
vn 0.8729985 0 0.4877228
vn 0 -0.3904294 0.9206329
vn 0.9901139 0.1402661 0
vn 1 0 0
vn 0.495203 0 0.8687772
vn -0.8831158 -0.4691553 0
vn -0.9901139 0.1402661 0
vn 0.4549548 0.3949008 -0.7981664
vn -0.593768 -0.7330751 -0.3317236
vn -0.8729985 0 0.4877228
vn 0.8831158 -0.4691553 0
vn 0.8390304 0.2762346 -0.4687456

vt 13.60079 15.74803
vt 13.60079 22.44094
vt 48.3474 15.74803
vt 48.3474 27.55906
vt -3.328346 22.44094
vt -11.98354 27.55906
vt -3.328346 15.74803
vt -11.98354 15.74803
vt 29.52756 15.74803
vt -29.52756 15.74803
vt 29.52756 22.44094
vt -29.52756 22.44094
vt -29.52756 -3.328346
vt -29.52756 13.60079
vt 29.52756 -3.328346
vt 29.52756 13.60079
vt -29.52756 48.3474
vt 29.52756 48.3474
vt 26.77165 50.78992
vt 26.77165 -1.599737E-33
vt -26.77165 50.78992
vt 14.64567 -21.70488
vt 0 -30.05291
vt -14.64567 -21.70488
vt -26.77165 -5.756728E-33
vt 7.225335 52.05869
vt 29.35119 52.05869
vt -1.975501 22.18646
vt 14.88229 22.18646
vt -3.256001 15.74803
vt -22.17668 15.74803
vt -3.256001 27.55906
vt -22.17668 27.55906
vt -7.225335 -5.86666
vt -29.35119 -5.86666
vt -5.385168 6.989243
vt -26.45741 6.989243
vt 29.52756 27.55906
vt -29.52756 27.55906
vt 35.13779 15.74803
vt -35.13779 15.74803
vt 33.46457 27.55906
vt -33.46457 27.55906
vt -21.45669 27.55906
vt -14.88229 22.18646
vt -29.35119 52.05869
vt 1.975501 22.18646
vt -7.225335 52.05869
vt -32.80303 3.990561
vt -28.60349 16.27975
vt -0.1710657 3.990561
vt 2.474577 16.27975
vt 0.1710657 40.28699
vt 32.80303 40.28699
vt -13.05715 17.13315
vt 11.8053 17.13315
vt 22.89875 27.55906
vt 22.89875 15.74803
vt -3.939653 27.55906
vt -3.939653 15.74803
vt 26.77165 19.82988
vt -26.77165 19.82988
vt 35.13779 36.93554
vt -35.13779 36.93554
vt 19.82657 10.6637
vt -57.46847 10.6637
vt 15.86126 22.59266
vt -57.46847 22.59266
vt 11.98354 15.74803
vt 3.328346 22.44094
vt 11.98354 27.55906
vt -48.3474 27.55906
vt -13.60079 22.44094
vt -13.60079 15.74803
vt -48.3474 15.74803
vt 3.328346 15.74803
vt 35.13779 -19.82657
vt 35.13779 57.46847
vt -35.13779 57.46847
vt -29.52756 -11.98354
vt 29.52756 -11.98354
vt 19.22244 -48.31423
vt 16.43786 -35.41343
vt -2.266812E-13 -59.27102
vt -1.129943E-13 -44.783
vt -16.43786 -35.41343
vt -19.22244 -48.31423
vt -35.13779 -19.82657
vt 22.17668 15.74803
vt 3.256001 15.74803
vt 22.17668 27.55906
vt 3.256001 27.55906
vt -19.82657 30.39241
vt 57.46847 30.39241
vt -1.331387E-15 12.56006
vt 50.78992 12.56006
vt -33.46457 57.46847
vt -33.46457 -15.86126
vt -18.30709 -42.99236
vt 1.136868E-13 -53.4274
vt 1.136868E-13 -44.783
vt 18.30709 -42.99236
vt 33.46457 -15.86126
vt 21.45669 57.46847
vt 33.46457 57.46847
vt -19.82657 10.6637
vt -15.86126 22.59266
vt 57.46847 10.6637
vt 57.46847 22.59266
vt 29.35119 -5.86666
vt 7.225335 -5.86666
vt 26.45741 6.989243
vt 5.385168 6.989243
vt -11.8053 17.13315
vt -32.80303 40.28699
vt 13.05715 17.13315
vt -0.1710657 40.28699
vt -22.89875 15.74803
vt -22.89875 27.55906
vt 3.939653 15.74803
vt 3.939653 27.55906
vt 19.82657 30.39241
vt 1.836396E-16 12.56006
vt -57.46847 30.39241
vt -50.78992 12.56006
vt 32.80303 3.990561
vt 0.1710657 3.990561
vt 28.60349 16.27975
vt -2.474577 16.27975
vt 1.128666E-13 -44.783

usemtl wood
usemap wood

f 2/2/1 1/1/1 3/3/1
f 2/2/1 3/3/1 4/4/1
f 5/5/1 2/2/1 4/4/1
f 5/5/1 4/4/1 6/6/1
f 7/7/1 5/5/1 6/6/1
f 6/6/1 8/8/1 7/7/1
f 9/10/2 1/9/2 2/11/2
f 2/11/2 10/12/2 9/10/2
f 2/14/3 5/13/3 11/15/3
f 11/15/3 10/16/3 2/14/3
f 7/10/4 12/9/4 11/11/4
f 11/11/4 5/12/4 7/10/4
f 3/17/3 1/14/3 9/16/3
f 9/16/3 13/18/3 3/17/3
f 15/20/5 14/19/5 16/21/5
f 16/21/5 17/22/5 15/20/5
f 16/21/5 18/23/5 17/22/5
f 16/21/5 19/24/5 18/23/5
f 16/21/5 20/25/5 19/24/5
f 22/27/6 21/26/6 17/28/6
f 17/28/6 18/29/6 22/27/6
f 24/31/7 23/30/7 25/32/7
f 25/32/7 26/33/7 24/31/7
f 22/35/8 27/34/8 28/36/8
f 28/36/8 29/37/8 22/35/8
f 3/10/4 13/9/4 30/38/4
f 30/38/4 4/39/4 3/10/4
f 32/41/2 31/40/2 33/42/2
f 33/42/2 34/43/2 32/41/2
f 33/42/2 35/44/2 34/43/2
f 22/46/9 18/45/9 19/47/9
f 19/47/9 27/48/9 22/46/9
f 28/50/10 27/49/10 36/51/10
f 36/51/10 37/52/10 28/50/10
f 21/54/11 38/53/11 15/55/11
f 15/55/11 17/56/11 21/54/11
f 40/58/12 39/57/12 41/59/12
f 41/59/12 42/60/12 40/58/12
f 16/62/13 14/61/13 31/63/13
f 31/63/13 32/64/13 16/62/13
f 31/66/14 38/65/14 43/67/14
f 43/67/14 33/68/14 31/66/14
f 11/70/15 42/69/15 41/71/15
f 41/71/15 30/72/15 11/70/15
f 30/72/15 10/73/15 11/70/15
f 30/72/15 9/74/15 10/73/15
f 30/72/15 13/75/15 9/74/15
f 42/69/15 11/70/15 12/76/15
f 3/18/5 38/77/5 31/78/5
f 31/78/5 32/79/5 3/18/5
f 32/79/5 13/17/5 3/18/5
f 32/79/5 9/14/5 13/17/5
f 32/79/5 12/13/5 9/14/5
f 32/79/5 42/80/5 12/13/5
f 38/77/5 3/18/5 8/81/5
f 8/81/5 21/82/5 38/77/5
f 3/18/5 1/16/5 8/81/5
f 1/16/5 7/15/5 8/81/5
f 7/15/5 1/16/5 9/14/5
f 9/14/5 12/13/5 7/15/5
f 8/81/5 23/83/5 21/82/5
f 23/83/5 22/84/5 21/82/5
f 23/83/5 24/85/5 22/84/5
f 24/85/5 40/86/5 22/84/5
f 40/86/5 27/87/5 22/84/5
f 40/86/5 42/80/5 27/87/5
f 42/80/5 36/88/5 27/87/5
f 42/80/5 32/79/5 36/88/5
f 40/90/16 24/89/16 26/91/16
f 26/91/16 39/92/16 40/90/16
f 32/94/17 36/93/17 20/95/17
f 20/95/17 16/96/17 32/94/17
f 6/80/3 33/97/3 43/98/3
f 43/98/3 44/99/3 6/80/3
f 44/99/3 25/86/3 6/80/3
f 44/99/3 29/100/3 25/86/3
f 29/100/3 26/101/3 25/86/3
f 29/100/3 28/102/3 26/101/3
f 28/102/3 39/83/3 26/101/3
f 28/102/3 41/81/3 39/83/3
f 28/102/3 37/103/3 41/81/3
f 37/103/3 30/18/3 41/81/3
f 33/97/3 6/80/3 4/17/3
f 4/17/3 35/104/3 33/97/3
f 4/17/3 30/18/3 35/104/3
f 30/18/3 34/105/3 35/104/3
f 30/18/3 37/103/3 34/105/3
f 37/107/18 36/106/18 32/108/18
f 32/108/18 34/109/18 37/107/18
f 21/111/19 22/110/19 29/112/19
f 29/112/19 44/113/19 21/111/19
f 27/115/20 19/114/20 20/116/20
f 20/116/20 36/117/20 27/115/20
f 25/119/21 23/118/21 8/120/21
f 8/120/21 6/121/21 25/119/21
f 15/123/22 38/122/22 31/124/22
f 31/124/22 14/125/22 15/123/22
f 38/127/23 21/126/23 44/128/23
f 44/128/23 43/129/23 38/127/23
f 7/13/3 8/80/3 23/86/3
f 23/86/3 12/15/3 7/13/3
f 23/86/3 24/130/3 12/15/3
f 24/130/3 40/83/3 12/15/3
f 40/83/3 42/81/3 12/15/3
