# Exported using Kenney Suite 1.2 

mtllib hole.mtl 

g hole

v 1.244741 5.414336E-15 -1.82255 
v -0.8597585 5.414336E-15 -1.82255 
v 1.473491 0.8 -2.218757 
v -1.088508 0.8 -2.218757 
v 1.244741 3.609557E-15 1.82255 
v 2.296992 3.609557E-15 0 
v -0.8597585 5.414336E-15 1.82255 
v -1.912009 5.414336E-15 0 
v 1.473491 0.8 2.218757 
v -1.088508 0.8 2.218757 
v 2.754492 0.8 2.887646E-14 
v 3.76368 0.8 2.887646E-14 
v 1.978086 0.8 -3.09274 
v -1.593103 0.8 -3.09274 
v -2.369509 0.8 2.887646E-14 
v -3.378696 0.8 2.887646E-14 
v 1.978086 0.8 3.09274 
v -1.593103 0.8 3.09274 
v -3.726887 0.3905 0 
v -3.562561 0.3905 0.2846217 
v -3.556899 0.3546655 0.3472044 
v -3.651636 3.609557E-15 0.7054425 
v -1.933216 3.609557E-15 3.681833 
v -1.129269 0 -4.439221 
v -0.6919905 1.804779E-15 -3.681833 
v -1.297786 0.407 -4.14734 
v -1.010851 0.407 -3.650354 
v -0.7092163 0.04274906 -3.650354 
v 1.408893 0.5435424 3.281586 
v 1.433356 0.58608 3.281586 
v 1.327403 -3.609557E-15 3.681833 
v 1.720291 0.58608 3.778573 
v 1.551773 -9.023893E-15 4.070454 
v 2.316022 0.58608 2.822464 
v 2.733706 -3.609557E-15 2.962153 
v 2.581096 0.58608 3.281586 
v 2.918131 -1.082867E-14 3.281586 
v 2.462678 -1.082867E-14 4.070454 
v 2.294161 0.58608 3.778573 
v -4.353296 0.3905 -1.032198 
v -4.741047 0.3905 -0.3605943 
v -4.581023 3.609557E-15 -1.426631 
v -5.1965 3.609557E-15 -0.3605943 
v 4.097841 0.407 1.443823E-14 
v 3.822105 0.407 0.4775886 
v 3.822581 0.3640533 0.5400124 
v 3.981394 0 0.8010939 
v 2.069032 0.58608 3.250263 
v 1.45144 0.58608 3.250263 
v -3.354372 0.3905 -0.645216 
v -3.577796 0.3905 -1.032198 
v -4.353296 0.3905 0.3110089 
v -3.577796 0.3905 0.3110089 
v -1.760183 0.407 -3.382132 
v -1.165709 0.407 -3.382132 
v 2.318198 3.609557E-15 -3.681833 
v -3.292663 3.609557E-15 -1.327201 
v -3.35007 3.609557E-15 -1.426631 
v -4.581023 3.609557E-15 0.7054425 
v 5.038204 -1.804779E-15 0.0122267 
v 4.582751 -1.804779E-15 -0.7766405 
v 4.582751 -1.804779E-15 0.8010939 
v 3.995512 -1.804779E-15 -0.7766405 
v 3.797128 -3.609557E-15 -1.120252 
v 3.595991 -7.219114E-15 -2.349605 
v 3.087361 -1.804779E-15 -2.349605 
v 4.051443 -7.219114E-15 -1.560738 
v -2.040174 0 -4.439221 
v -2.223509 1.804779E-15 -3.179031 
v -2.495627 0 -3.650354 
v -1.881958 0.407 -3.171211 
v -1.871657 0.407 -4.14734 
v -2.158592 0.407 -3.650354 
v 3.714408 0.2035 -1.560738 
v 3.427473 0.2035 -2.057724 
v 3.542094 0.2035 -1.262282 
v 3.082846 0.2035 -2.057724 
v 3.829456 0.3806574 -0.5036513 
v 3.829164 0.407 -0.4653619 
v 3.840363 0.407 0.5092131 
v 4.414234 0.407 0.5092131 
v 4.701169 0.407 0.0122267 
v 4.414234 0.407 -0.4847597 
v 3.840363 0.407 -0.4847597 

vn 0 0.443811 0.8961204
vn 0 -1 0
vn 0 0.443811 -0.8961204
vn -0.7760631 0.443811 -0.4480602
vn 0 1 0
vn 0.7760631 0.443811 -0.4480602
vn -0.6973571 0.5929508 0.4026193
vn 0.7760631 0.443811 0.4480602
vn -0.7760631 0.443811 0.4480602
vn 0.7037585 0.5827796 -0.4063152
vn -0.775209 0.4457968 0.4475671
vn 0.775209 0.4457968 -0.4475671
vn 0.775209 0.4457968 0.4475671
vn -0.6092959 0.7106414 -0.3517772
vn 0.6973571 0.5929508 0.4026193
vn 0 0.5929508 -0.8052387
vn 0.6092959 0.7106414 0.3517772
vn 0 0.4457968 0.8951342
vn -0.775209 0.4457968 -0.4475671
vn 0.6092959 0.7106414 -0.3517772
vn 0 0.7106414 0.7035543
vn -0.6092959 0.7106414 0.3517772
vn 0 0.7106414 -0.7035543
vn -0.6973571 0.5929508 -0.4026193
vn 0 0.5929508 0.8052387
vn -0.7037585 0.5827796 -0.4063152
vn 0.4952981 0.8203086 -0.2859605
vn 0.4952981 0.8203086 0.2859605
vn -0.7037585 0.5827796 0.4063152
vn 0 0.5827795 -0.8126303
vn 0 0.8203086 -0.5719211
vn 0.7037585 0.5827796 0.4063152
vn 0.6973571 0.5929508 -0.4026193
vn 0 0.5827795 0.8126303

vt 9.801114 6.36904
vt -6.769752 6.36904
vt 11.60229 13.39847
vt -8.570933 13.39847
vt -9.801114 -14.35079
vt -9.801114 14.35079
vt -18.08655 -8.95607E-30
vt 6.769752 -14.35079
vt 6.769752 14.35079
vt 15.05519 -8.95607E-30
vt -9.801114 6.36904
vt -11.60229 13.39847
vt 6.769752 6.36904
vt 8.570933 13.39847
vt -9.043274 6.951594
vt -10.84445 13.98102
vt 7.527593 6.951594
vt 9.328773 13.98102
vt -29.63527 2.264547E-13
vt -21.68891 2.264547E-13
vt -15.57548 -24.35228
vt -11.60229 -17.47053
vt 12.54412 -24.35228
vt 8.570933 -17.47053
vt 18.65755 2.264547E-13
vt 26.60391 2.264547E-13
vt -15.57548 24.35228
vt -11.60229 17.47053
vt 12.54412 24.35228
vt 8.570933 17.47053
vt 7.527593 5.786485
vt -9.043274 5.786485
vt 9.328773 12.81591
vt -10.84445 12.81591
vt -14.67279 -12.59331
vt -13.30196 -8.589018
vt -12.08497 -12.59331
vt 14.81764 -8.589018
vt -11.63592 -12.94372
vt -9.566036 -16.41181
vt 17.49569 -16.41181
vt 10.84445 12.81591
vt 9.043274 5.786485
vt -9.328773 12.81591
vt -7.527593 5.786485
vt -9.328773 13.98102
vt 10.84445 13.98102
vt -7.527593 6.951594
vt 9.043274 6.951594
vt 34.71742 -5.697634
vt 27.83115 -5.697634
vt 33.39051 -1.753991
vt 28.87185 -1.753991
vt 27.68431 -5.283415
vt 27.92428 2.35446
vt 28.02059 2.728641
vt 30.33277 -2.426791
vt 32.53926 2.728641
vt 33.86617 -2.426791
vt -28.36485 2.044042
vt -30.96183 -3.11139
vt -32.53926 2.044042
vt -33.86617 -3.11139
vt -10.88875 -14.63045
vt -18.06124 -14.63045
vt -12.21566 -9.475019
vt -16.73433 -9.475019
vt 10.10031 -21.82038
vt 16.20661 -21.82038
vt 8.307186 -26.19076
vt 17.99973 -26.19076
vt 16.13323 -13.9886
vt 11.79093 -13.9886
vt 14.81764 -10.14565
vt -13.30196 -10.14565
vt 11.36714 -14.40855
vt 10.21204 -17.96844
vt -10.12846 -12.23747
vt -14.01807 -12.23747
vt -9.436587 -17.96844
vt -20.32359 25.83926
vt -18.06426 29.75254
vt -18.23639 22.22413
vt -16.29159 25.59262
vt -13.5456 29.75254
vt -11.42866 25.59262
vt -11.28626 25.83926
vt 26.41238 -5.080441
vt 29.34557 -7.888658E-15
vt 28.17162 -8.12754
vt 34.27792 -8.12754
vt 34.27792 2.448889
vt 28.17162 2.448889
vt 28.05166 2.241115
vt 37.33108 -2.839325
vt 13.85971 -13.21028
vt 9.178813 -13.21028
vt 12.54412 -9.367336
vt -15.57548 -9.367336
vt 5.584381 -16.7721
vt -18.25353 -17.19013
vt 5.448744 -17.19013
vt -15.96669 18.63091
vt -16.37116 18.22986
vt -16.20661 18.63091
vt 19.39117 -14.28815
vt 12.21869 -14.28815
vt 18.06426 -9.132719
vt 13.5456 -9.132719
vt 16.83064 13.87352
vt 16.44953 14.2477
vt 16.73433 14.2477
vt 22.01355 12.24278
vt 17.60598 16.61317
vt 22.91759 12.24278
vt 21.12447 16.61317
vt -28.00707 0.02195793
vt -28.75304 -3.947376
vt -28.17162 0.4230089
vt -34.27792 0.4230089
vt -36.07104 -3.947376
vt -15.01816 -19.80264
vt -13.22504 -24.17302
vt -21.12447 -19.80264
vt -22.91759 -24.17302
vt 26.3785 -7.98286
vt 28.17162 -3.612475
vt 36.07104 -7.98286
vt 34.27792 -3.612475
vt 39.6709 0.09627322
vt 36.08466 -6.11528
vt 36.08466 6.307827
vt 31.34956 6.307827
vt 31.46073 -6.11528
vt 29.89865 -8.820879
vt 21.52525 23.32404
vt 28.31489 -18.50083
vt 24.30993 -18.50083
vt 18.25353 -28.99081
vt 19.39117 32.05082
vt 18.08655 -2.309866E-29
vt 12.21869 32.05082
vt 9.801114 14.35079
vt 10.45199 28.99081
vt -15.22217 28.99081
vt -6.769752 14.35079
vt -15.05519 -1.635122E-29
vt 22.97741 25.83926
vt 31.90113 -12.28928
vt 9.801114 -14.35079
vt -5.448744 -28.99081
vt -6.769752 -14.35079
vt -8.89188 -34.9545
vt -16.06436 -34.9545
vt -17.50794 -25.03174
vt -28.75304 5.554666
vt -25.92648 -10.4504
vt -26.3785 -11.23332
vt -36.07104 -11.23332
vt -36.07104 5.554666
vt -40.91732 -2.839325
vt -19.65061 -28.74294
vt -12.92415 -16.41181
vt -14.21551 -12.43196
vt 3.91293 -16.41181
vt -14.81764 -8.589018
vt 13.30196 -8.589018
vt 8.806398 -12.59331
vt 14.67279 -12.59331
vt -16.13323 -12.43196
vt 10.45199 -17.19013
vt -15.22217 -17.19013
vt 11.09365 -11.8751
vt -12.54412 -9.367336
vt 11.42866 -11.45915
vt 16.29159 -11.45915
vt 15.57548 -9.367336
vt -22.2393 -18.2931
vt -20.91239 -14.34945
vt -15.06682 -18.2931
vt -16.39373 -14.34945
vt -5.307739 -27.70332
vt -3.980829 -24.9016
vt 1.864745 -27.70332
vt 0.5378355 -24.9016
vt 26.59339 -17.62232
vt 22.58843 -17.62232
vt 25.26648 -14.8206
vt 22.55288 -14.8206
vt -34.71742 -1.542298
vt -33.39051 2.401346
vt -30.43209 -1.542298
vt -29.03408 2.401346
vt 16.06436 -20.37077
vt 8.89188 -20.37077
vt 14.73745 -16.42712
vt 10.21879 -16.42712
vt -29.24731 -12.28928
vt -27.89051 -9.939228
vt -26.98798 -16.20255
vt -24.27438 -16.20255
vt -28.31489 -15.17639
vt -26.98798 -12.37467
vt -24.30993 -15.17639
vt -24.27438 -12.37467
vt 20.91239 14.99681
vt 22.09993 11.46738
vt 18.47368 14.99681
vt 7.959457 -28.74294
vt 9.178813 -26.63096
vt 10.21879 -32.65622
vt 13.85971 -26.63096
vt 14.73745 -32.65622
vt 14.81857 -24.97016
vt 16.99679 -28.74294
vt 15.98001 -17.96844
vt 3.867225 -17.96844
vt 13.30196 -10.14565
vt 1.894637 -15.97852
vt -14.81764 -10.14565
vt -5.33763 -15.97852
vt -7.310219 -17.96844
vt -11.64215 -14.24619
vt -10.43438 -17.96844
vt -11.9021 -13.9886
vt -16.13323 -13.9886
vt 18.30438 16.69763
vt 18.59192 16.69763
vt 18.73193 16.2815
vt 36.08466 -3.676072
vt 31.34956 -3.676072
vt 34.75775 0.2675716
vt 30.09907 -0.148562
vt 30.23908 0.2675716
vt -37.01708 0.09627322
vt -34.75775 4.009552
vt -34.75775 -3.817005
vt -30.23908 -3.817005
vt -32.26646 1.143249E-13
vt -30.1509 -3.664267
vt -30.23908 4.009552
vt -30.09531 3.76054
vt 19.75207 -20.05003
vt 12.57959 -20.05003
vt 18.42517 -16.10639
vt 13.9065 -16.10639
vt -18.51105 16.49849
vt -18.42517 16.75374
vt -18.2488 16.75374
vt -31.46073 -3.56386
vt -36.08466 -3.56386
vt -30.1532 0.1245362
vt -34.75775 0.3797837
vt -30.23908 0.3797837
vt -12.74634 -19.99392
vt -19.91882 -19.99392
vt -14.07325 -16.05028
vt -18.59192 -16.05028

usemtl sand
usemap sand

f 2/2/1 1/1/1 3/3/1
f 3/3/1 4/4/1 2/2/1
f 5/6/2 1/5/2 6/7/2
f 1/5/2 5/6/2 2/8/2
f 2/8/2 5/6/2 7/9/2
f 2/8/2 7/9/2 8/10/2
f 9/12/3 5/11/3 7/13/3
f 7/13/3 10/14/3 9/12/3
f 11/16/4 6/15/4 5/17/4
f 5/17/4 9/18/4 11/16/4
f 11/20/5 12/19/5 13/21/5
f 13/21/5 3/22/5 11/20/5
f 13/21/5 14/23/5 3/22/5
f 14/23/5 4/24/5 3/22/5
f 14/23/5 15/25/5 4/24/5
f 14/23/5 16/26/5 15/25/5
f 17/27/5 12/19/5 11/20/5
f 11/20/5 9/28/5 17/27/5
f 9/28/5 18/29/5 17/27/5
f 15/25/5 16/26/5 18/29/5
f 9/28/5 10/30/5 18/29/5
f 10/30/5 15/25/5 18/29/5
f 7/32/6 8/31/6 15/33/6
f 15/33/6 10/34/6 7/32/6
f 16/36/7 19/35/7 20/37/7
f 20/37/7 18/38/7 16/36/7
f 20/37/7 21/39/7 18/38/7
f 21/39/7 22/40/7 18/38/7
f 22/40/7 23/41/7 18/38/7
f 2/43/8 4/42/8 15/44/8
f 15/44/8 8/45/8 2/43/8
f 11/47/9 3/46/9 1/48/9
f 1/48/9 6/49/9 11/47/9
f 25/51/10 24/50/10 26/52/10
f 26/52/10 27/53/10 25/51/10
f 27/53/10 28/54/10 25/51/10
f 30/56/11 29/55/11 31/57/11
f 31/57/11 32/58/11 30/56/11
f 31/57/11 33/59/11 32/58/11
f 35/61/12 34/60/12 36/62/12
f 36/62/12 37/63/12 35/61/12
f 38/65/13 37/64/13 36/66/13
f 36/66/13 39/67/13 38/65/13
f 41/69/14 40/68/14 42/70/14
f 42/70/14 43/71/14 41/69/14
f 45/73/15 44/72/15 12/74/15
f 12/74/15 17/75/15 45/73/15
f 17/75/15 46/76/15 45/73/15
f 17/75/15 47/77/15 46/76/15
f 17/75/15 34/78/15 47/77/15
f 17/75/15 48/79/15 34/78/15
f 47/77/15 34/78/15 35/80/15
f 39/82/5 36/81/5 34/83/5
f 34/83/5 48/84/5 39/82/5
f 48/84/5 32/85/5 39/82/5
f 48/84/5 49/86/5 32/85/5
f 49/86/5 30/87/5 32/85/5
f 19/89/5 50/88/5 51/90/5
f 51/90/5 40/91/5 19/89/5
f 19/89/5 40/91/5 52/92/5
f 19/89/5 52/92/5 53/93/5
f 53/93/5 20/94/5 19/89/5
f 40/91/5 41/95/5 52/92/5
f 55/97/16 54/96/16 14/98/16
f 55/97/16 14/98/16 13/99/16
f 28/100/16 55/97/16 13/99/16
f 28/100/16 13/99/16 56/101/16
f 56/101/16 25/102/16 28/100/16
f 21/104/17 20/103/17 53/105/17
f 33/107/18 38/106/18 39/108/18
f 39/108/18 32/109/18 33/107/18
f 49/111/19 29/110/19 30/112/19
f 50/114/20 57/113/20 58/115/20
f 58/115/20 51/116/20 50/114/20
f 22/118/21 21/117/21 53/119/21
f 53/119/21 52/120/21 22/118/21
f 52/120/21 59/121/21 22/118/21
f 59/123/22 52/122/22 41/124/22
f 41/124/22 43/125/22 59/123/22
f 51/127/23 58/126/23 42/128/23
f 42/128/23 40/129/23 51/127/23
f 61/131/2 60/130/2 62/132/2
f 62/132/2 47/133/2 61/131/2
f 47/133/2 63/134/2 61/131/2
f 47/133/2 64/135/2 63/134/2
f 47/133/2 35/136/2 64/135/2
f 35/136/2 65/137/2 64/135/2
f 35/136/2 66/138/2 65/137/2
f 35/136/2 56/139/2 66/138/2
f 35/136/2 38/140/2 56/139/2
f 38/140/2 6/141/2 56/139/2
f 38/140/2 33/142/2 6/141/2
f 33/142/2 5/143/2 6/141/2
f 33/142/2 31/144/2 5/143/2
f 31/144/2 23/145/2 5/143/2
f 23/145/2 7/146/2 5/143/2
f 23/145/2 8/147/2 7/146/2
f 35/136/2 37/148/2 38/140/2
f 67/149/2 64/135/2 65/137/2
f 56/139/2 6/141/2 1/150/2
f 1/150/2 25/151/2 56/139/2
f 1/150/2 2/152/2 25/151/2
f 2/152/2 24/153/2 25/151/2
f 2/152/2 8/147/2 24/153/2
f 8/147/2 68/154/2 24/153/2
f 8/147/2 23/145/2 68/154/2
f 23/145/2 69/155/2 68/154/2
f 23/145/2 22/156/2 69/155/2
f 22/156/2 57/157/2 69/155/2
f 22/156/2 58/158/2 57/157/2
f 22/156/2 42/159/2 58/158/2
f 22/156/2 59/160/2 42/159/2
f 59/160/2 43/161/2 42/159/2
f 68/154/2 69/155/2 70/162/2
f 71/164/24 69/163/24 57/165/24
f 57/165/24 14/166/24 71/164/24
f 57/165/24 16/167/24 14/166/24
f 57/165/24 50/168/24 16/167/24
f 50/168/24 19/169/24 16/167/24
f 54/170/24 71/164/24 14/166/24
f 23/172/25 31/171/25 29/173/25
f 29/173/25 18/174/25 23/172/25
f 29/173/25 49/175/25 18/174/25
f 49/175/25 48/176/25 18/174/25
f 48/176/25 17/177/25 18/174/25
f 72/179/26 68/178/26 70/180/26
f 70/180/26 73/181/26 72/179/26
f 74/183/27 67/182/27 65/184/27
f 65/184/27 75/185/27 74/183/27
f 64/187/28 67/186/28 74/188/28
f 74/188/28 76/189/28 64/187/28
f 73/191/29 70/190/29 69/192/29
f 69/192/29 71/193/29 73/191/29
f 24/195/30 68/194/30 72/196/30
f 72/196/30 26/197/30 24/195/30
f 76/199/5 74/198/5 75/200/5
f 75/200/5 77/201/5 76/199/5
f 75/203/31 65/202/31 66/204/31
f 66/204/31 77/205/31 75/203/31
f 28/207/32 27/206/32 55/208/32
f 55/210/5 27/209/5 26/211/5
f 26/211/5 54/212/5 55/210/5
f 26/211/5 72/213/5 54/212/5
f 72/213/5 71/214/5 54/212/5
f 72/213/5 73/215/5 71/214/5
f 66/217/33 56/216/33 13/218/33
f 13/218/33 77/219/33 66/217/33
f 13/218/33 12/220/33 77/219/33
f 12/220/33 76/221/33 77/219/33
f 12/220/33 64/222/33 76/221/33
f 12/220/33 78/223/33 64/222/33
f 78/223/33 63/224/33 64/222/33
f 12/220/33 79/225/33 78/223/33
f 12/220/33 44/226/33 79/225/33
f 80/228/29 45/227/29 46/229/29
f 47/231/34 62/230/34 81/232/34
f 81/232/34 46/233/34 47/231/34
f 81/232/34 80/234/34 46/233/34
f 81/236/5 82/235/5 83/237/5
f 83/237/5 84/238/5 81/236/5
f 84/238/5 44/239/5 81/236/5
f 84/238/5 79/240/5 44/239/5
f 80/241/5 81/236/5 44/239/5
f 44/239/5 45/242/5 80/241/5
f 62/244/32 60/243/32 82/245/32
f 82/245/32 81/246/32 62/244/32
f 84/248/26 78/247/26 79/249/26
f 61/251/30 63/250/30 78/252/30
f 78/252/30 83/253/30 61/251/30
f 78/252/30 84/254/30 83/253/30
f 60/256/10 61/255/10 83/257/10
f 83/257/10 82/258/10 60/256/10

usemtl iron
usemap iron

f 5/6/5 6/7/5 1/5/5
f 1/5/5 2/8/5 5/6/5
f 2/8/5 7/9/5 5/6/5
f 2/8/5 8/10/5 7/9/5
