# Exported using Kenney Suite 1.2 

mtllib palm_long.mtl 

g Group 28

v -6.45448 0.9961901 8.944956 
v -8.98327 0.9961901 8.944956 
v -6.745291 5.325785 8.654145 
v -8.692459 5.325785 8.654145 
v -8.98327 0.9961901 6.416164 
v -8.692459 5.325785 6.706976 
v -6.45448 0.9961901 6.416164 
v -6.745291 5.325785 6.706976 
v -8.439327 12.95047 5.887288 
v -8.280828 18.62109 7.156923 
v -8.439327 12.95047 7.328193 
v -8.280828 18.62109 8.280828 
v -6.998423 12.95047 5.887288 
v -6.998423 12.95047 7.328193 
v -7.156922 18.62109 7.156923 
v -7.156922 18.62109 8.280828 
v -6.631495 0 8.76794 
v -6.631495 0 6.59318 
v -8.806255 0 8.76794 
v -8.806255 0 6.59318 

vn 0 0.06701714 0.9977518
vn -0.9977518 0.06701714 0
vn 0 0.06701714 -0.9977518
vn 0.9977518 0.06701714 0
vn -0.9996096 0.02794009 0
vn 0.9996096 0.02794009 0
vn 0 0.2184875 -0.9758397
vn 0 -0.1068886 -0.994271
vn 0.9994493 0.03318071 0
vn 0 -0.1656734 0.9861807
vn 0 0.1713311 0.9852135
vn -0.9994493 0.03318071 0
vn 0 -1 0
vn -0.984577 -0.1749518 0
vn 0 -0.1749518 -0.984577
vn 0.984577 -0.1749518 0
vn 0 1 0
vn 0 -0.1749518 0.984577

vt -1.30054E-16 8.107619
vt -25.98425 8.107619
vt -2.988189 52.69605
vt -22.99606 52.69605
vt 5.43441 8.471818
vt 8.422599 53.06025
vt 31.41866 8.471818
vt 28.43047 53.06025
vt 25.98425 10.57741
vt -2.249513E-17 10.57741
vt 22.99606 55.16584
vt 2.988189 55.16584
vt -5.43441 10.21321
vt -31.41866 10.21321
vt -8.422599 54.80164
vt -28.43047 54.80164
vt 2.479301E-16 132.4491
vt 13.04596 190.7395
vt 14.80583 132.4491
vt 24.59451 190.7395
vt -6.794467E-17 133.1751
vt -14.80583 133.1751
vt -13.04596 191.4655
vt -24.59451 191.4655
vt 20.39504 129.8558
vt 5.589212 129.8558
vt 18.7664 189.5662
vt 7.217854 189.5662
vt 22.99606 53.51061
vt 2.988189 53.51061
vt 20.39504 132.3085
vt 5.589212 132.3085
vt 0 133.183
vt -8.422599 54.79343
vt -14.80583 133.183
vt -28.43047 54.79343
vt -5.589212 133.6848
vt -20.39504 133.6848
vt -7.217854 192.7691
vt -18.7664 192.7691
vt -2.988189 49.0442
vt -22.99606 49.0442
vt -5.589212 128.5665
vt -20.39504 128.5665
vt 3.121802E-16 132.3209
vt 14.80583 132.3209
vt 8.422599 53.93125
vt 28.43047 53.93125
vt -1.818898 29.59976
vt -1.818898 7.253307
vt -24.16535 29.59976
vt -24.16535 7.253307
vt 5.43441 14.62434
vt 31.41866 14.62434
vt 7.253307 4.227771
vt 29.59976 4.227771
vt 24.16535 -1.268979
vt 1.818898 -1.268979
vt 25.98425 9.127588
vt 0 9.127588
vt -5.43441 10.07835
vt -7.253307 -0.3182193
vt -31.41866 10.07835
vt -29.59976 -0.3182193
vt 7.217854 13.04596
vt 7.217854 24.59451
vt 18.7664 13.04596
vt 18.7664 24.59451
vt -1.818898 5.178531
vt -24.16535 5.178531
vt -9.503379E-17 15.5751
vt -25.98425 15.5751

usemtl wood
usemap wood

f 2/2/1 1/1/1 3/3/1
f 3/3/1 4/4/1 2/2/1
f 6/6/2 5/5/2 2/7/2
f 2/7/2 4/8/2 6/6/2
f 7/10/3 5/9/3 6/11/3
f 6/11/3 8/12/3 7/10/3
f 1/14/4 7/13/4 8/15/4
f 8/15/4 3/16/4 1/14/4
f 10/18/5 9/17/5 11/19/5
f 11/19/5 12/20/5 10/18/5
f 14/22/6 13/21/6 15/23/6
f 15/23/6 16/24/6 14/22/6
f 13/26/7 9/25/7 10/27/7
f 10/27/7 15/28/7 13/26/7
f 8/30/8 6/29/8 9/31/8
f 9/31/8 13/32/8 8/30/8
f 8/34/9 13/33/9 14/35/9
f 14/35/9 3/36/9 8/34/9
f 11/38/10 14/37/10 16/39/10
f 16/39/10 12/40/10 11/38/10
f 4/42/11 3/41/11 14/43/11
f 14/43/11 11/44/11 4/42/11
f 11/46/12 9/45/12 6/47/12
f 6/47/12 4/48/12 11/46/12
f 18/50/13 17/49/13 19/51/13
f 19/51/13 20/52/13 18/50/13
f 2/54/14 5/53/14 20/55/14
f 20/55/14 19/56/14 2/54/14
f 18/58/15 20/57/15 5/59/15
f 5/59/15 7/60/15 18/58/15
f 18/62/16 7/61/16 1/63/16
f 1/63/16 17/64/16 18/62/16
f 16/66/17 15/65/17 10/67/17
f 10/67/17 12/68/17 16/66/17
f 19/70/18 17/69/18 1/71/18
f 1/71/18 2/72/18 19/70/18
g Group 30

v -6.811668 19.4274 6.811668 
v -6.811668 19.4274 8.626081 
v -7.08383 19.84446 7.08383 
v -7.08383 19.84446 8.353919 
v -8.353919 19.84446 7.08383 
v -8.353919 19.84446 8.353919 
v -6.811668 18.62109 6.811668 
v -7.156922 18.62109 8.280828 
v -6.811668 18.62109 8.626081 
v -8.626081 18.62109 8.626081 
v -8.280828 18.62109 8.280828 
v -8.280828 18.62109 7.156922 
v -7.156922 18.62109 7.156922 
v -8.626081 18.62109 6.811668 
v -8.626081 19.4274 6.811668 
v -8.626081 19.4274 8.626081 
v -6.509266 19.06595 9.682629 
v -8.928482 19.06595 9.682629 
v -8.928482 20.23372 9.682629 
v -6.509266 20.23372 9.682629 
v -6.509266 19.06595 11.79572 
v -8.928482 19.06595 11.79572 
v -6.509266 20.23372 11.79572 
v -6.509266 19.12156 13.93662 
v -6.509266 18.37086 13.93662 
v -8.928482 20.23372 11.79572 
v -8.928482 18.37086 13.93662 
v -8.928482 19.12156 13.93662 
v -6.847071 17.34211 15.43775 
v -8.2986 17.34211 15.43775 
v -6.847071 17.70356 15.43775 
v -8.2986 17.70356 15.43775 
v -1.501127 19.12156 8.928482 
v -3.642026 20.23372 8.928482 
v -1.501127 19.12156 6.509266 
v -3.642026 20.23372 6.509266 
v -3.642026 19.06595 8.928482 
v -3.642026 19.06595 6.509266 
v -5.755121 19.06595 8.928482 
v -5.755121 19.06595 6.509266 
v 8.028777E-14 17.34211 6.847071 
v 8.028777E-14 17.70356 6.847071 
v -1.501127 18.37086 6.509266 
v -5.755121 20.23372 6.509266 
v -5.755121 20.23372 8.928482 
v -1.501127 18.37086 8.928482 
v 3.928079E-12 17.70356 8.2986 
v 3.928079E-12 17.34211 8.2986 
v -6.509266 19.06595 5.755121 
v -6.509266 19.06595 3.642026 
v -8.928482 19.06595 5.755121 
v -8.928482 19.06595 3.642026 
v -8.928482 18.37086 1.501127 
v -8.928482 19.12156 1.501127 
v -8.928482 20.23372 3.642026 
v -8.928482 20.23372 5.755121 
v -6.509266 20.23372 5.755121 
v -6.509266 20.23372 3.642026 
v -6.509266 18.37086 1.501127 
v -6.509266 19.12156 1.501127 
v -7.139149 17.70356 7.306187E-13 
v -7.139149 17.34211 7.306187E-13 
v -8.590678 17.34211 4.022417E-12 
v -8.590678 17.70356 4.022417E-12 
v -11.79572 19.06595 8.928482 
v -11.79572 19.06595 6.509266 
v -13.93662 18.37086 8.928482 
v -13.93662 18.37086 6.509266 
v -9.682629 19.06595 8.928482 
v -9.682629 20.23372 8.928482 
v -13.93662 19.12156 8.928482 
v -15.43775 17.70356 8.590678 
v -13.93662 19.12156 6.509266 
v -15.43775 17.70356 7.139149 
v -9.682629 19.06595 6.509266 
v -9.682629 20.23372 6.509266 
v -11.79572 20.23372 6.509266 
v -11.79572 20.23372 8.928482 
v -15.43775 17.34211 8.590678 
v -15.43775 17.34211 7.139149 

vn 0.8374569 0.5465034 0
vn 0 0.5465034 -0.8374569
vn -0.8374569 0.5465034 0
vn 0 0.5465034 0.8374569
vn 0 -0.9216354 0.388057
vn -0.9613961 0 -0.275168
vn 0 0.7949513 -0.6066733
vn 1 0 0
vn -1 0 0
vn 0 0 1
vn 0 0.7269484 0.6866919
vn 0 0.8874055 0.4609899
vn 0 -0.9511248 -0.3088068
vn -0.9221116 0 0.3869239
vn 0 -0.8248826 -0.565304
vn 0.9613961 0 -0.275168
vn 0.9756026 0 0.2195435
vn 0.4609899 0.8874055 0
vn 0.2195435 0 -0.9756026
vn 0 0 -1
vn 0.6866919 0.7269484 0
vn -0.565304 -0.8248826 0
vn -0.275168 0 -0.9613961
vn 0.388057 -0.9216354 0
vn -0.275168 0 0.9613961
vn -0.3088068 -0.9511248 0
vn -0.6066733 0.7949513 0
vn 0.3869239 0 0.9221116
vn 0.9221116 0 -0.3869239
vn 0 -0.8248826 0.565304
vn 0 0.7269484 -0.6866919
vn -0.9756026 0 -0.2195435
vn 0 -0.9216354 -0.388057
vn -0.9613961 0 0.275168
vn 0.9613961 0 0.275168
vn 0 0.7949513 0.6066733
vn 0 0.8874055 -0.4609899
vn 0 -0.9511248 0.3088068
vn 0.3088068 -0.9511248 0
vn 0.275168 0 0.9613961
vn -0.6866919 0.7269484 0
vn 0.275168 0 -0.9613961
vn 0.565304 -0.8248826 0
vn -0.2195435 0 0.9756026
vn -0.4609899 0.8874055 0
vn -0.388057 -0.9216354 0
vn 0.6066733 0.7949513 0
vn -0.3869239 0 -0.9221116

vt -96.45268 77.43978
vt -122.1446 77.43978
vt -100.3065 84.4915
vt -118.2908 84.4915
vt 100.3065 100.3065
vt 100.3065 118.2908
vt 118.2908 100.3065
vt 118.2908 118.2908
vt -96.45268 96.45268
vt -101.3414 117.2559
vt -96.45268 122.1446
vt -122.1446 122.1446
vt -117.2559 117.2559
vt -117.2559 101.3414
vt -101.3414 101.3414
vt -122.1446 96.45268
vt 122.1446 77.43978
vt 96.45268 77.43978
vt 118.2908 84.4915
vt 100.3065 84.4915
vt 96.45268 -42.02439
vt 100.3065 -34.97267
vt 122.1446 -42.02439
vt 118.2908 -34.97267
vt -96.45268 -42.02439
vt -122.1446 -42.02439
vt -100.3065 -34.97267
vt -118.2908 -34.97267
vt 96.45268 96.45268
vt 96.45268 122.1446
vt 122.1446 96.45268
vt 122.1446 122.1446
vt -92.17069 135.8333
vt -96.45268 119.6006
vt -126.4266 135.8333
vt -122.1446 119.6006
vt 151.0397 18.11024
vt 151.0397 29.52756
vt 166.601 24.40945
vt 166.601 40.94488
vt 92.17069 133.8322
vt 126.4266 133.8322
vt 96.45268 115.0126
vt 122.1446 115.0126
vt -92.17069 167.0265
vt -92.17069 137.1052
vt -126.4266 167.0265
vt -126.4266 137.1052
vt -167.0265 40.94488
vt -167.0265 24.40945
vt -197.3415 25.19685
vt -197.3415 14.56693
vt -137.1052 24.40945
vt -137.1052 40.94488
vt 167.0265 24.40945
vt 167.0265 40.94488
vt 197.3415 14.56693
vt 197.3415 25.19685
vt 137.1052 40.94488
vt 137.1052 24.40945
vt -96.95397 0
vt -117.5075 0
vt -96.95397 5.11811
vt -117.5075 5.11811
vt -92.17069 -126.1546
vt -96.95397 -155.3944
vt -126.4266 -126.1546
vt -117.5075 -155.3944
vt 92.17069 167.0265
vt 126.4266 167.0265
vt 92.17069 137.1052
vt 126.4266 137.1052
vt -92.17069 -163.5064
vt -126.4266 -163.5064
vt -92.17069 -129.345
vt -126.4266 -129.345
vt 92.17069 -183.198
vt 92.17069 -151.3252
vt 126.4266 -183.198
vt 126.4266 -151.3252
vt 133.0534 14.56693
vt 133.0534 25.19685
vt 156.1046 6.339741E-14
vt 156.1046 5.11811
vt 92.17069 -154.5488
vt 126.4266 -154.5488
vt 96.95397 -180.3171
vt 117.5075 -180.3171
vt -90.88866 29.52756
vt -90.88866 18.11024
vt -106.45 40.94488
vt -106.45 24.40945
vt -212.7623 25.19685
vt -212.7623 14.56693
vt -234.5497 5.11811
vt -234.5497 0
vt -126.4266 30.47803
vt -126.4266 64.63937
vt -92.17069 30.47803
vt -92.17069 64.63937
vt -51.57079 126.4266
vt -51.57079 92.17069
vt -81.49205 126.4266
vt -81.49205 92.17069
vt -21.28562 0
vt -21.28562 5.11811
vt 0.5017653 14.56693
vt 0.5017653 25.19685
vt 21.25583 14.56693
vt 21.25583 25.19685
vt 51.57079 24.40945
vt 51.57079 40.94488
vt 81.49205 40.94488
vt 81.49205 24.40945
vt -51.57079 24.40945
vt -81.49205 24.40945
vt -51.57079 40.94488
vt -81.49205 40.94488
vt -21.25583 25.19685
vt -21.25583 14.56693
vt -117.5075 3.514565
vt -126.4266 32.75437
vt -96.95397 3.514565
vt -92.17069 32.75437
vt 117.5075 2.106072E-10
vt 96.95397 2.106874E-10
vt 126.4266 25.76831
vt 92.17069 25.76831
vt 119.2699 18.11024
vt 103.7086 24.40945
vt 119.2699 29.52756
vt 103.7086 40.94488
vt -126.4266 -65.6337
vt -92.17069 -65.6337
vt -122.1446 -81.8664
vt -96.45268 -81.8664
vt -59.11895 18.11024
vt -59.11895 29.52756
vt -43.55759 24.40945
vt -43.55759 40.94488
vt 126.4266 24.71531
vt 92.17069 24.71531
vt 126.4266 56.58806
vt 92.17069 56.58806
vt 126.4266 -39.94204
vt 122.1446 -58.7616
vt 92.17069 -39.94204
vt 96.45268 -58.7616
vt 51.57079 126.4266
vt 81.49205 126.4266
vt 51.57079 92.17069
vt 81.49205 92.17069
vt -45.46647 3.560479E-14
vt -68.51772 14.56693
vt -45.46647 5.11811
vt -68.51772 25.19685
vt -92.17069 81.49205
vt -92.17069 51.57079
vt -126.4266 81.49205
vt -126.4266 51.57079
vt 92.17069 81.49205
vt 126.4266 81.49205
vt 92.17069 51.57079
vt 126.4266 51.57079
vt 39.11405 5.11811
vt 39.11405 -3.063021E-14
vt 16.06279 25.19685
vt 16.06279 14.56693
vt -92.17069 25.76831
vt -101.0898 -1.800595E-10
vt -126.4266 25.76831
vt -121.6433 -1.799552E-10
vt 92.17069 32.75437
vt 126.4266 32.75437
vt 101.0898 3.514565
vt 121.6433 3.514565
vt 26.70601 0
vt 26.70601 5.11811
vt 48.49339 14.56693
vt 48.49339 25.19685
vt 92.17069 -65.6337
vt 126.4266 -65.6337
vt 96.45268 -81.8664
vt 122.1446 -81.8664
vt 43.55759 24.40945
vt 43.55759 40.94488
vt 59.11895 18.11024
vt 59.11895 29.52756
vt -103.7086 40.94488
vt -103.7086 24.40945
vt -119.2699 29.52756
vt -119.2699 18.11024
vt -92.17069 -39.94204
vt -96.45268 -58.7616
vt -126.4266 -39.94204
vt -122.1446 -58.7616
vt 121.6433 0
vt 101.0898 0
vt 121.6433 5.11811
vt 101.0898 5.11811
vt 92.17069 64.63937
vt 126.4266 64.63937
vt 92.17069 30.47803
vt 126.4266 30.47803
vt -92.17069 56.58806
vt -92.17069 24.71531
vt -126.4266 56.58806
vt -126.4266 24.71531
vt -126.4266 -151.3252
vt -92.17069 -151.3252
vt -126.4266 -183.198
vt -92.17069 -183.198
vt -151.0397 18.11024
vt -166.601 24.40945
vt -151.0397 29.52756
vt -166.601 40.94488
vt 126.4266 -126.1546
vt 121.6433 -155.3944
vt 92.17069 -126.1546
vt 101.0898 -155.3944
vt 90.88866 18.11024
vt 90.88866 29.52756
vt 106.45 24.40945
vt 106.45 40.94488
vt -137.1052 126.4266
vt -137.1052 92.17069
vt -167.0265 126.4266
vt -167.0265 92.17069
vt -126.4266 -154.5488
vt -92.17069 -154.5488
vt -121.6433 -180.3171
vt -101.0898 -180.3171
vt -186.5581 0
vt -186.5581 5.11811
vt -164.7707 14.56693
vt -164.7707 25.19685
vt 126.4266 -129.345
vt 126.4266 -163.5064
vt 92.17069 -129.345
vt 92.17069 -163.5064
vt 122.1446 119.6006
vt 96.45268 119.6006
vt 126.4266 135.8333
vt 92.17069 135.8333
vt 137.1052 126.4266
vt 167.0265 126.4266
vt 137.1052 92.17069
vt 167.0265 92.17069
vt -96.45268 115.0126
vt -122.1446 115.0126
vt -92.17069 133.8322
vt -126.4266 133.8322
vt 240.6852 -2.837585E-15
vt 217.6339 14.56693
vt 240.6852 5.11811
vt 217.6339 25.19685

usemtl leaves
usemap leaves

f 22/74/19 21/73/19 23/75/19
f 23/75/19 24/76/19 22/74/19
f 24/78/17 23/77/17 25/79/17
f 25/79/17 26/80/17 24/78/17
f 28/82/13 27/81/13 29/83/13
f 29/83/13 30/84/13 28/82/13
f 30/84/13 31/85/13 28/82/13
f 30/84/13 32/86/13 31/85/13
f 27/81/13 28/82/13 33/87/13
f 33/87/13 28/82/13 31/85/13
f 31/85/13 32/86/13 33/87/13
f 33/87/13 34/88/13 27/81/13
f 33/87/13 32/86/13 34/88/13
f 32/86/13 30/84/13 34/88/13
f 21/90/20 35/89/20 25/91/20
f 25/91/20 23/92/20 21/90/20
f 25/94/21 35/93/21 36/95/21
f 36/95/21 26/96/21 25/94/21
f 36/98/22 22/97/22 24/99/22
f 24/99/22 26/100/22 36/98/22
f 22/102/17 21/101/17 35/103/17
f 35/103/17 36/104/17 22/102/17
f 29/106/23 37/105/23 38/107/23
f 38/107/23 30/108/23 29/106/23
f 36/110/24 30/109/24 38/111/24
f 38/111/24 39/112/24 36/110/24
f 39/114/25 40/113/25 22/115/25
f 22/115/25 36/116/25 39/114/25
f 37/118/13 41/117/13 42/119/13
f 42/119/13 38/120/13 37/118/13
f 41/122/26 43/121/26 44/123/26
f 44/123/26 45/124/26 41/122/26
f 43/121/26 41/122/26 37/125/26
f 37/125/26 40/126/26 43/121/26
f 46/128/27 42/127/27 47/129/27
f 47/129/27 48/130/27 46/128/27
f 42/127/27 46/128/27 39/131/27
f 39/131/27 38/132/27 42/127/27
f 50/134/28 49/133/28 51/135/28
f 51/135/28 52/136/28 50/134/28
f 51/138/29 44/137/29 48/139/29
f 48/139/29 52/140/29 51/138/29
f 46/142/17 43/141/17 40/143/17
f 40/143/17 39/144/17 46/142/17
f 48/146/30 44/145/30 43/147/30
f 43/147/30 46/148/30 48/146/30
f 41/150/31 45/149/31 47/151/31
f 47/151/31 42/152/31 41/150/31
f 48/154/32 47/153/32 50/155/32
f 50/155/32 52/156/32 48/154/32
f 47/158/33 45/157/33 49/159/33
f 49/159/33 50/160/33 47/158/33
f 29/162/34 22/161/34 40/163/34
f 40/163/34 37/164/34 29/162/34
f 45/166/35 44/165/35 51/167/35
f 51/167/35 49/168/35 45/166/35
f 54/170/36 53/169/36 55/171/36
f 55/171/36 56/172/36 54/170/36
f 58/174/13 57/173/13 59/175/13
f 59/175/13 60/176/13 58/174/13
f 62/178/37 61/177/37 63/179/37
f 63/179/37 55/180/37 62/178/37
f 55/182/38 63/181/38 58/183/38
f 58/183/38 56/184/38 55/182/38
f 64/185/38 56/184/38 58/183/38
f 58/183/38 60/186/38 64/185/38
f 59/188/28 57/187/28 54/189/28
f 54/189/28 65/190/28 59/188/28
f 53/191/28 54/189/28 57/187/28
f 57/187/28 66/192/28 53/191/28
f 61/133/26 62/135/26 67/136/26
f 67/136/26 68/134/26 61/133/26
f 53/194/39 67/193/39 62/195/39
f 62/195/39 55/196/39 53/194/39
f 61/198/40 68/197/40 66/199/40
f 66/199/40 63/200/40 61/198/40
f 60/202/41 27/201/41 21/203/41
f 21/203/41 64/204/41 60/202/41
f 60/206/42 59/205/42 29/207/42
f 29/207/42 27/208/42 60/206/42
f 22/210/43 29/209/43 59/211/43
f 59/211/43 65/212/43 22/210/43
f 63/214/44 66/213/44 57/215/44
f 57/215/44 58/216/44 63/214/44
f 22/218/45 65/217/45 64/219/45
f 64/219/45 21/220/45 22/218/45
f 65/222/17 54/221/17 56/223/17
f 56/223/17 64/224/17 65/222/17
f 66/226/46 68/225/46 67/227/46
f 67/227/46 53/228/46 66/226/46
f 70/230/13 69/229/13 71/231/13
f 71/231/13 72/232/13 70/230/13
f 74/182/27 73/181/27 72/183/27
f 72/183/27 75/184/27 74/182/27
f 75/184/27 72/183/27 71/186/27
f 71/186/27 76/185/27 75/184/27
f 76/234/17 77/233/17 78/235/17
f 78/235/17 75/236/17 76/234/17
f 70/187/26 78/189/26 77/190/26
f 77/190/26 69/188/26 70/187/26
f 78/189/26 70/187/26 79/192/26
f 79/192/26 80/191/26 78/189/26
f 82/238/47 81/237/47 80/239/47
f 80/239/47 79/240/47 82/238/47
f 82/242/48 79/241/48 73/243/48
f 73/243/48 83/244/48 82/242/48
f 74/246/49 80/245/49 81/247/49
f 81/247/49 84/248/49 74/246/49
f 84/250/50 83/249/50 73/251/50
f 73/251/50 74/252/50 84/250/50
f 71/254/51 69/253/51 27/255/51
f 27/255/51 34/256/51 71/254/51
f 76/258/52 71/257/52 34/259/52
f 34/259/52 35/260/52 76/258/52
f 69/262/53 77/261/53 21/263/53
f 21/263/53 27/264/53 69/262/53
f 21/266/54 77/265/54 76/267/54
f 76/267/54 35/268/54 21/266/54
f 82/270/38 83/269/38 84/271/38
f 84/271/38 81/272/38 82/270/38
f 75/274/55 78/273/55 80/275/55
f 80/275/55 74/276/55 75/274/55
f 79/278/56 70/277/56 72/279/56
f 72/279/56 73/280/56 79/278/56
f 86/282/57 85/281/57 87/283/57
f 87/283/57 88/284/57 86/282/57
f 89/286/58 30/285/58 36/287/58
f 36/287/58 90/288/58 89/286/58
f 92/290/59 91/289/59 93/291/59
f 93/291/59 94/292/59 92/290/59
f 35/294/60 34/293/60 95/295/60
f 95/295/60 96/296/60 35/294/60
f 86/127/38 88/129/38 93/130/38
f 93/130/38 97/128/38 86/127/38
f 95/132/38 86/127/38 97/128/38
f 97/128/38 96/131/38 95/132/38
f 95/298/13 89/297/13 85/299/13
f 85/299/13 86/300/13 95/298/13
f 91/123/28 87/124/28 85/122/28
f 85/122/28 98/121/28 91/123/28
f 90/126/28 98/121/28 85/122/28
f 85/122/28 89/125/28 90/126/28
f 88/302/61 87/301/61 99/303/61
f 99/303/61 100/304/61 88/302/61
f 92/306/62 99/305/62 87/307/62
f 87/307/62 91/308/62 92/306/62
f 91/310/63 98/309/63 97/311/63
f 97/311/63 93/312/63 91/310/63
f 34/314/64 30/313/64 89/315/64
f 89/315/64 95/316/64 34/314/64
f 98/318/17 90/317/17 96/319/17
f 96/319/17 97/320/17 98/318/17
f 94/272/27 100/270/27 99/269/27
f 99/269/27 92/271/27 94/272/27
f 36/322/65 35/321/65 96/323/65
f 96/323/65 90/324/65 36/322/65
f 88/326/66 100/325/66 94/327/66
f 94/327/66 93/328/66 88/326/66
