# Exported using Kenney Suite 1.2 

mtllib plant.mtl 

g plant

v 1.613405 1.794 -0.9314999 
v 2.506156 3.795 -1.44693 
v 2.069166E-14 1.794 -1.863 
v -3.82272E-14 3.795 -2.89386 
v -2.506156 3.795 1.44693 
v -2.506156 3.795 -1.44693 
v -3.226811 4.0885 8.142572E-14 
v -3.984951E-14 -5.245385E-16 1.242 
v 2.069166E-14 1.794 1.863 
v 1.075604 5.23222E-16 0.621 
v 1.613405 1.794 0.9314999 
v -1.613405 1.794 -0.9314999 
v -1.613405 1.794 0.9314999 
v -1.075604 4.457967E-15 -0.621 
v -1.075604 3.933428E-15 0.621 
v 2.506156 3.795 1.44693 
v -3.82272E-14 3.795 2.89386 
v 1.075604 -1.975366E-16 -0.621 
v -3.984951E-14 4.26043E-15 -1.242 
v -7.090372E-08 2.25988 -2.89386 
v -1.613405 2.3324 -2.7945 
v -2.506156 2.25988 -1.44693 
v 2.506156 2.25988 -1.44693 
v 1.613405 1.068307 -0.9315001 
v 2.506156 2.25988 1.44693 
v 1.613405 1.068307 0.9314999 
v 2.038144E-14 1.068307 1.863 
v -1.613405 1.068307 0.9315001 
v -1.613405 2.3324 2.7945 
v 1.536561E-08 2.25988 2.89386 
v -2.506156 2.25988 1.44693 
v -1.613405 1.068307 -0.9314999 
v -5.553814E-08 1.068307 -1.863 
v 3.226811 2.1324 -4.809728E-08 
v 1.613405 4.0385 2.7945 
v 1.613405 4.1885 -2.7945 

vn 0.4566159 -0.4074405 -0.7908819
vn -0.4566159 0.4074405 0.7908819
vn -0.3771867 -0.9261372 -3.911391E-16
vn 0.3771867 0.9261372 3.911391E-16
vn 0.4789424 -0.2871528 0.8295525
vn -0.4789424 0.2871528 -0.8295525
vn -0.9578848 -0.2871528 -1.212743E-16
vn 0.9578848 0.2871528 1.212743E-16
vn 0.4566159 -0.4074405 0.7908819
vn -0.4566159 0.4074405 -0.7908819
vn -0.9132317 -0.4074405 -1.720759E-16
vn 0.9132317 0.4074405 1.720759E-16
vn 0.4789424 -0.2871528 -0.8295525
vn -0.4789424 0.2871528 0.8295525
vn -0.05006275 -0.9949749 -0.08671123
vn 0.05006275 0.9949749 0.08671123
vn 0.8002993 -0.5996008 -2.532317E-16
vn -0.8002993 0.5996008 2.532317E-16
vn -0.4466019 -0.4496523 0.7735372
vn 0.4466019 0.4496523 -0.7735372
vn -0.05006275 -0.9949749 0.08671123
vn 0.05006275 0.9949749 -0.08671123
vn -0.4466019 -0.4496523 -0.7735372
vn 0.4466019 0.4496523 0.7735372
vn -0.4001496 -0.5996007 -0.6930795
vn 0.4001496 0.5996007 0.6930795
vn -0.17419 -0.984712 -4.158772E-16
vn 0.17419 0.984712 4.158772E-16
vn 0.8932037 -0.4496522 -1.899033E-16
vn -0.8932037 0.4496522 1.899033E-16
vn -0.4001496 -0.5996007 0.6930795
vn 0.4001496 0.5996007 -0.6930795
vn 0.160054 -0.947381 0.2772217
vn -0.160054 0.947381 -0.2772217
vn 0.2396212 -0.8776826 -0.415036
vn -0.2396212 0.8776826 0.415036

vt -10.62992 26.1977
vt -16.51181 51.20192
vt 10.62992 26.1977
vt 16.51181 51.20192
vt 16.51181 42.82173
vt -16.51181 42.82173
vt 8.211282E-13 51.70144
vt -7.086614 3.524621
vt -10.62992 24.89717
vt 7.086614 3.524621
vt 10.62992 24.89717
vt -16.51181 31.0377
vt 2.744377E-07 39.30307
vt 16.51181 31.0377
vt 16.51181 37.78698
vt 10.62992 20.79612
vt -16.51181 37.78698
vt -10.62992 20.79612
vt 7.086614 5.519201
vt -7.086614 5.519201
vt 10.62992 19.16794
vt -10.62992 19.16794
vt -2.744347E-07 39.30307
vt 16.51181 31.0377
vt -16.51181 31.0377
vt 10.62992 19.16794
vt -10.62992 19.16794
vt 10.62992 20.79612
vt 16.51181 37.78698
vt 16.51181 -23.6699
vt 2.20275E-12 -32.02142
vt -16.51181 -23.6699
vt 7.086614 5.5192
vt -7.086614 5.5192
vt -10.62992 20.79612
vt -16.51181 37.78698
vt 1.509903E-13 49.63797
vt 16.51181 40.95738
vt -16.51181 40.95738
vt -16.51181 45.85569
vt -1.39444E-13 55.22563
vt 16.51181 45.85569

usemtl leaves
usemap leaves

f 2/2/1 1/1/1 3/3/1
f 3/3/1 4/4/1 2/2/1
f 2/2/2 3/3/2 1/1/2
f 3/3/2 2/2/2 4/4/2
f 6/6/3 5/5/3 7/7/3
f 6/6/4 7/7/4 5/5/4
f 9/9/5 8/8/5 10/10/5
f 10/10/5 11/11/5 9/9/5
f 9/9/6 10/10/6 8/8/6
f 10/10/6 9/9/6 11/11/6
f 13/11/7 12/9/7 14/8/7
f 14/8/7 15/10/7 13/11/7
f 13/11/8 14/8/8 12/9/8
f 14/8/8 13/11/8 15/10/8
f 9/1/9 11/3/9 16/4/9
f 16/4/9 17/2/9 9/1/9
f 9/1/10 16/4/10 11/3/10
f 16/4/10 9/1/10 17/2/10
f 5/4/11 6/2/11 12/1/11
f 12/1/11 13/3/11 5/4/11
f 5/4/12 12/1/12 6/2/12
f 12/1/12 5/4/12 13/3/12
f 1/9/13 18/8/13 19/10/13
f 19/10/13 3/11/13 1/9/13
f 1/9/14 19/10/14 18/8/14
f 19/10/14 1/9/14 3/11/14
f 21/13/15 20/12/15 22/14/15
f 21/13/16 22/14/16 20/12/16
f 24/16/17 23/15/17 25/17/17
f 25/17/17 26/18/17 24/16/17
f 24/16/18 25/17/18 23/15/18
f 25/17/18 24/16/18 26/18/18
f 15/20/19 8/19/19 27/21/19
f 27/21/19 28/22/19 15/20/19
f 15/20/20 27/21/20 8/19/20
f 27/21/20 15/20/20 28/22/20
f 30/24/21 29/23/21 31/25/21
f 30/24/22 31/25/22 29/23/22
f 19/20/23 14/19/23 32/26/23
f 32/26/23 33/27/23 19/20/23
f 19/20/24 32/26/24 14/19/24
f 32/26/24 19/20/24 33/27/24
f 33/18/25 32/28/25 22/29/25
f 22/29/25 20/17/25 33/18/25
f 33/18/26 22/29/26 32/28/26
f 22/29/26 33/18/26 20/17/26
f 34/31/27 25/30/27 23/32/27
f 34/31/28 23/32/28 25/30/28
f 18/33/29 24/21/29 26/27/29
f 26/27/29 10/34/29 18/33/29
f 18/33/30 26/27/30 24/21/30
f 26/27/30 18/33/30 10/34/30
f 28/35/31 27/16/31 30/15/31
f 30/15/31 31/36/31 28/35/31
f 28/35/32 30/15/32 27/16/32
f 30/15/32 28/35/32 31/36/32
f 16/38/33 35/37/33 17/39/33
f 16/38/34 17/39/34 35/37/34
f 36/41/35 2/40/35 4/42/35
f 36/41/36 4/42/36 2/40/36
